<?xml version="1.0" encoding="utf-8"?>
<!-- Generator: Adobe Illustrator 22.1.0, SVG Export Plug-In . SVG Version: 6.00 Build 0)  -->
<svg version="1.1" id="Layer_2_1_" xmlns="http://www.w3.org/2000/svg" xmlns:xlink="http://www.w3.org/1999/xlink" x="0px" y="0px"
	 viewBox="0 0 1042 1224" style="enable-background:new 0 0 1042 1224;" xml:space="preserve">
<style type="text/css">
	.st0{fill:#373033;}
	.st1{fill:#884E00;}
	.st2{fill:#D39D60;}
	.st3{fill:#FFFFFF;}
	.st4{fill:none;}
	.st5{fill:#F1E3C5;}
</style>
<path class="st0" d="M364,1119.6h39v25h-50.5L364,1119.6z"/>
<path class="st0" d="M333,1119.6h39v25h-50.5L333,1119.6z M641.2,1119.6h39v25h-50.5L641.2,1119.6z M580.9,1119.6h39v25h-50.5
	L580.9,1119.6z"/>
<path class="st1" d="M420.8,378.3l-14.5-4.1l-12.2,8.9l14.5,4.2L420.8,378.3z"/>
<path class="st1" d="M423.1,391.1l-14.5-4.1l-12.2,8.9l14.5,4.2L423.1,391.1z M418.5,365.2l-14.6-4.1l-12.2,9l14.6,4.1L418.5,365.2z
	 M427.8,417l-14.6-4.2l-12.2,9l14.6,4.1L427.8,417z"/>
<path class="st1" d="M430.1,429.8l-14.6-4.2l-12.2,9l14.6,4.1L430.1,429.8z M425.4,403.9l-14.5-4.2l-12.2,9l14.5,4.2L425.4,403.9z
	 M434.6,455.1l-14.5-4.2l-12.2,9l14.5,4.2L434.6,455.1z"/>
<path class="st1" d="M436.9,467.9l-14.5-4.2l-12.2,9l14.5,4.2L436.9,467.9z M432.3,442l-14.6-4.2l-12.2,9l14.6,4.2L432.3,442z
	 M441.6,493.7l-14.6-4.1l-12.2,8.9l14.6,4.2L441.6,493.7z"/>
<path class="st1" d="M443.9,506.5l-14.6-4.1l-12.2,8.9l14.6,4.2L443.9,506.5z M439.2,480.6l-14.5-4.1l-12.2,9l14.5,4.1L439.2,480.6z
	 M393.8,225.2l-14.6-4.2l-12.2,9l14.6,4.2L393.8,225.2z"/>
<path class="st1" d="M396.1,238l-14.6-4.2l-12.1,9l14.5,4.2L396.1,238z M391.4,212.1l-14.5-4.1l-12.2,8.9l14.6,4.2L391.4,212.1z
	 M386.4,186.4l-14.6-4.2l-12.2,9l14.6,4.2L386.4,186.4z"/>
<path class="st1" d="M388.7,199.2l-14.6-4.2l-12.1,9l14.5,4.2L388.7,199.2z M384,173.3l-14.5-4.1l-12.2,8.9l14.6,4.2L384,173.3z
	 M400.8,263.8l-14.6-4.1l-12.2,9l14.6,4.1L400.8,263.8z"/>
<path class="st1" d="M403.1,276.6l-14.6-4.1l-12.2,9l14.6,4.1L403.1,276.6z M398.4,250.8l-14.6-4.2l-12.2,9l14.6,4.1L398.4,250.8z
	 M407.6,302l-14.6-4.2l-12.1,9l14.5,4.1L407.6,302z"/>
<path class="st1" d="M409.9,314.8l-14.5-4.2l-12.2,9l14.5,4.1L409.9,314.8z M405.3,288.9l-14.6-4.2l-12.2,9l14.6,4.2L405.3,288.9z
	 M414.6,340.6l-14.6-4.2l-12.2,9l14.6,4.2L414.6,340.6z"/>
<path class="st1" d="M416.9,353.4l-14.6-4.2l-12.2,9l14.6,4.2L416.9,353.4z M412.2,327.5l-14.6-4.1l-12.1,8.9l14.5,4.2L412.2,327.5z
	"/>
<path class="st0" d="M738,844.5l17.1-34.9L738,774.7l-17.1,34.9L738,844.5z"/>
<path class="st1" d="M340.8,741.7l12.9,174.4h39l10-174.8L340.8,741.7z"/>
<circle class="st1" cx="372.8" cy="915.2" r="26"/>
<path class="st1" d="M351.8,899.5l6.8,220.1h29.3l3.9-208.3 M582.1,771.8l12.8,144.3h39l10-144.7L582.1,771.8z"/>
<circle class="st1" cx="614" cy="915.2" r="26"/>
<path class="st1" d="M593,899.5l6.8,220.1h29.3l3.9-208.3"/>
<path class="st2" d="M391.8,679.1c50.4,0,91.3-40.9,91.3-91.3s-40.9-91.3-91.3-91.3"/>
<ellipse transform="matrix(0.7071 -0.7071 0.7071 0.7071 -304.682 626.4927)" class="st2" cx="603.9" cy="681" rx="91.3" ry="91.3"/>
<path class="st2" d="M340.8,559.6l263.1,30.1v186.7l-263.1-34.1V559.6z"/>
<path class="st2" d="M582.1,772.4L695.2,851V681L582.1,772.4z"/>
<path class="st1" d="M332.1,1119.6c0-14.4,11.6-26,26-26s26,11.6,26,26"/>
<path class="st3" d="M362.8,1119.6c0-14.4,11.6-26,26-26s26,11.6,26,26"/>
<path class="st1" d="M577.9,1119.6c0-14.4,11.6-26,26-26c14.4,0,26,11.6,26,26"/>
<path class="st3" d="M640.3,1119.6c0-14.4,11.6-26,26-26c14.4,0,26,11.6,26,26"/>
<path class="st2" d="M675.9,624.9l8.8,38.2c44.6,46.6,53.3,115.3,53.3,115.3C738,729,717,666,675.9,624.9L675.9,624.9z M448.9,618.1
	l-75.1-451.9h-33v430.9L448.9,618.1z"/>
<path class="st2" d="M340.8,166.3h32.5l25.5,153.2l6.5,39.2l17.9,107.4l0.5,3l3.6,21.5l1.8,10.8l0.6,3.6c2.7,1.2,5.4,2.7,8,4.2
	c11.2,6.6,20.8,15.4,28.2,25.9c3.2,4.4,5.9,9.1,8.2,14c2.9,6.1,5.1,12.6,6.6,19.4c0.5,2.4,1,4.8,1.3,7.3l6.8,0.8l5.2,0.6l18.6,2.1
	l6.7,0.8l18.2,2.1l13.1,1.5l52.9,6c4.6,0,9.1,0.3,13.5,1c8.6,1.2,16.9,3.7,24.5,7.2c13.4,6.2,25.1,15.5,34.1,27
	c0.7,0.6,1.3,1.3,1.9,1.9c9,9.3,17,19.7,24,30.7c3.8,5.9,7.3,12.1,10.5,18.4c2.4,4.8,4.7,9.7,6.8,14.7c7.7,18,13,36.7,16,54.7
	c1.9,11.4,2.9,22.4,2.9,32.9v0.2v-0.2c-0.2-1.5-1.7-12-5.9-26.9c-5.9-21-16.9-50.6-37.1-76.3c0.1,2,0.2,4,0.2,6v169.8l-0.4-0.3v0.4
	l0.3,45.4c4.8,4.7,7.8,11.3,7.8,18.6c0,2.7-0.4,5.4-1.2,7.9c-0.3,1-0.7,2-1.1,2.9c-1.2,2.8-2.9,5.3-5,7.4l-0.1,3.7l-0.2,11.1
	l-0.2,12.3l-0.2,8.5l-0.2,11.3l-0.7,39.7l-1.8,99.7h-29.3l-4.4-141.2l-1.2-37.3l-0.3-9.4c-2.8-3.4-4.8-7.4-5.6-11.9
	c-0.2-1.5-0.4-3.1-0.4-4.7c0-1.3,0.1-2.5,0.3-3.8c0.5-3.7,1.8-7,3.7-10l-1.2-13.9l-0.8-8.7l-5.4-60.9l-6.2-4.3l-15.8-11L584,773.5
	l-34.8-4.5l-36.6-4.7l-16.9-2.2l-4.6-0.6l-7.6-1l-6.5-0.8l-14.4-1.9l-33.9-4.4l-1.3,23.1l-3.7,64.7l-0.5,8.2l-2.8,49.9
	c3.2,4.3,5.1,9.7,5.1,15.5c0,7.1-2.8,13.5-7.4,18.2l-3.4,186.3h-29.3l-5.8-187.8c-3.8-4.5-6-10.3-6-16.6c0-5.7,1.8-11,5-15.3v-0.3
	l0.2,0.1c0.2-0.2,0.3-0.4,0.5-0.6l-1.8-24.5v-0.2l-3.9-53.2l-0.8-11.5l-1.2-16.9l-0.8-10.1l-2.7-36.5l-27.3-3.5L340.8,166.3
	L340.8,166.3z"/>
<g>
	<path class="st1" d="M569.5,657l13.6-26.7l29.6,4.7l4.7,29.5l-26.7,13.6L569.5,657z M621.5,665.8l13.6-26.7l29.6,4.7l4.6,29.6
		L642.7,687L621.5,665.8z M631.1,718.6l13.6-26.7l29.6,4.7l4.7,29.5l-26.7,13.6L631.1,718.6z M583.7,744.1l13.5-26.7l29.6,4.7
		l4.7,29.6l-26.7,13.5L583.7,744.1z M544.2,704.6l13.6-26.7l29.5,4.7l4.7,29.6l-26.6,13.6L544.2,704.6z M491.3,578.7l-2.1-2.1
		l5.1,0.6L491.3,578.7z M470.1,557.5l4.3-8.4c2.9,6.1,5.1,12.6,6.6,19.4L470.1,557.5L470.1,557.5z M551,583.6l-7.7,4l-5.5-5.5
		L551,583.6z M531.7,619.2l13.6-26.7l29.6,4.7l4.7,29.5l-26.7,13.6L531.7,619.2z M484.3,644.7l13.5-26.7l29.6,4.7l4.7,29.5
		l-26.7,13.6L484.3,644.7z M444.8,605.2l13.6-26.7l29.5,4.7l4.7,29.6l-26.7,13.6L444.8,605.2z M505.1,583.5l-6.6,3.4l1.2,7.3
		l7.3,1.1l3.3-6.5L505.1,583.5z M507.3,596.4l-6.6,3.3l1.1,7.3l7.3,1.2l3.4-6.6L507.3,596.4z M520.3,598.7l-6.6,3.4l1.2,7.3l7.2,1.1
		l3.4-6.5L520.3,598.7z M526.6,587l-6.6,3.4l1.2,7.3l7.2,1.1l3.4-6.6L526.6,587z M519.6,580l2.5,2.5l-3.4,6.6l-7.3-1.2l-1.1-7.3
		l2.6-1.3L519.6,580z M605.4,683.1l-6.6,3.3l1.2,7.3l7.2,1.2l3.4-6.6L605.4,683.1z M607.6,695.9l-6.6,3.4l1.1,7.2l7.3,1.2l3.4-6.6
		L607.6,695.9z M620.6,698.3l-6.6,3.3l1.1,7.3l7.3,1.2l3.4-6.6L620.6,698.3z M626.9,686.6l-6.6,3.3l1.1,7.3l7.3,1.2l3.4-6.6
		L626.9,686.6z M617.1,676.8l-6.5,3.4l1.1,7.3l7.3,1.1l3.3-6.6L617.1,676.8z"/>
	<g>
		<path class="st1" d="M686.6,729.7l8.6,1.4V777l-1,0.5L673,756.4L686.6,729.7z M735.1,745.3c1.9,11.4,2.9,22.4,2.9,32.9
			c-0.2-1.5-1.7-12-5.9-26.9L735.1,745.3z M687.1,843.5l8.1-15.8V851l-0.4-0.2v0.4L687.1,843.5z M647.7,804l13.5-26.6l29.6,4.6
			l4.7,29.6l-26.7,13.6L647.7,804z"/>
	</g>
	<g>
		<path class="st1" d="M639.9,804.8l1.4,8.7l-15.8-10.9L639.9,804.8z M654.2,887.2l-0.5,0.2l-0.8-8.6L654.2,887.2z"/>
	</g>
	<g>
		<path class="st1" d="M651.4,919.9l18.1,18.2l26.7-13.6l-4.7-29.6l-29.6-4.7l-10.7,21.1L651.4,919.9z M700.3,925.7l1.3-2.7
			c-0.3,1-0.7,2-1.1,2.9L700.3,925.7L700.3,925.7z M676.1,977.3l18.5,3l-0.7,39.6l-10.3,5.3l-21.1-21.2L676.1,977.3z M666.2,942.6
			l4.6,29.5l-12.4,6.4l-1.2-37.3L666.2,942.6z"/>
	</g>
	<g>
		<path class="st1" d="M684.2,943l-6.6,3.4l1.2,7.3l7.3,1.1l3.3-6.6L684.2,943z M686.4,955.8l-6.6,3.4l1.1,7.3l7.3,1.1l3.4-6.5
			L686.4,955.8z M695,960.4l-0.2,8.6l-0.8-0.2l-1.2-7.2L695,960.4z M695.4,937l-0.2,11.2l-4.7-0.8l-1.1-7.3L695.4,937z"/>
	</g>
	<g>
		<path class="st1" d="M367.7,788.6l13.5-26.7l29.6,4.7l4.7,29.6l-26.7,13.5L367.7,788.6z M423.5,849.8l-25,12.7l-21.2-21.2
			l13.6-26.6l29.5,4.7l3.6,22.1L423.5,849.8z M377.6,874.4v-0.2V874.4z"/>
	</g>
	<g>
		<path class="st1" d="M373,809.3l-6.6,3.4l1.2,7.3l7.3,1.1l3.3-6.5L373,809.3z"/>
	</g>
	<g>
		<path class="st1" d="M343.6,618.6l13.6-26.6l29.6,4.6l4.6,29.6l-26.6,13.6L343.6,618.6z M395.6,627.5l13.6-26.7l29.5,4.7l4.7,29.5
			l-26.7,13.6L395.6,627.5z M405.2,680.2l13.6-26.6l29.6,4.6l4.6,29.6l-26.6,13.6L405.2,680.2z M357.7,705.7l13.6-26.6l29.6,4.7
			l4.7,29.5l-26.7,13.6L357.7,705.7z M361.4,644.3l4.7,29.5l-25.3,12.9V641L361.4,644.3z"/>
	</g>
	<g>
		<path class="st1" d="M379.4,644.7l-6.5,3.4l1.1,7.3l7.3,1.1l3.4-6.5L379.4,644.7z M381.6,657.6l-6.6,3.3l1.2,7.3l7.3,1.2l3.3-6.6
			L381.6,657.6z M394.6,659.9l-6.5,3.4l1.1,7.3l7.3,1.1l3.4-6.5L394.6,659.9z M400.9,648.2l-6.5,3.4l1.1,7.3l7.3,1.1l3.4-6.6
			L400.9,648.2z M391.2,638.5l-6.6,3.3l1.2,7.3l7.3,1.2l3.3-6.6L391.2,638.5z"/>
	</g>
	<g>
		<path class="st1" d="M443,719.1l13.5-26.6l29.6,4.6l4.7,29.6l-26.7,13.6L443,719.1z M494.9,728l13.6-26.7l29.6,4.7l4.7,29.5
			l-26.7,13.6L494.9,728z M518.2,754.1l29.5,4.7l1.7,10.5l-36.6-4.7L518.2,754.1z M431.2,740.1l29.6,4.7l2.1,13.3l-33.9-4.4
			l-1.3,23.1l-10.1-10L431.2,740.1z"/>
	</g>
	<g>
		<path class="st1" d="M478.8,745.2l-6.6,3.4l1.2,7.3l7.3,1.1l3.3-6.5L478.8,745.2z M481,758.1l2.7,2.7l-6.5-0.8L481,758.1z
			 M494,760.4l1.9,2l-4.6-0.6L494,760.4z M500.3,748.7l-6.6,3.4l1.2,7.3l7.2,1.1l3.4-6.6L500.3,748.7z M490.5,739l-6.5,3.3l1.1,7.3
			l7.3,1.2l3.4-6.6L490.5,739z"/>
	</g>
	<g>
		<path class="st1" d="M712.4,675.9c2.4,4.8,4.7,9.7,6.8,14.7l-9.5-9.5L712.4,675.9z M677.9,626.8c9,9.3,17,19.7,24,30.7l-10.5,5.3
			l-21.2-21.2L677.9,626.8z"/>
	</g>
	<g>
		<path class="st1" d="M641.9,598l-11.4,5.8l-13.1-13.1C626,591.9,634.2,594.4,641.9,598z"/>
	</g>
	<g>
		<path class="st1" d="M407.7,486.2l-6.6,3.4l1.1,7.3l7.3,1.1l3.4-6.6L407.7,486.2z M409.8,499l-6.5,3.4l1.1,7.3l7.3,1.1l3.4-6.5
			L409.8,499z M422.8,501.4l-6.5,3.4l1.1,7.3l7.3,1.1l3.4-6.6L422.8,501.4z M429.1,489.7l-6.5,3.4l1.1,7.2l7.3,1.2l3.4-6.6
			L429.1,489.7z M419.4,480l-6.6,3.3l1.2,7.3l7.3,1.2l3.3-6.6L419.4,480z"/>
	</g>
	<g>
		<path class="st1" d="M370.8,458.8l13.6-26.7l29.5,4.7l4.7,29.5L392,479.9L370.8,458.8z M423.6,466l0.5,3l-1.3-1.4L423.6,466z
			 M438.1,509.2c11.2,6.6,20.8,15.4,28.2,25.9l-12.7,6.5l-21.2-21.2L438.1,509.2z M384.9,545.9l13.6-26.7l29.6,4.7l4.6,29.6
			L406.1,567L384.9,545.9z M345.4,506.4l13.6-26.6l29.6,4.6l4.7,29.6l-26.7,13.6L345.4,506.4z"/>
	</g>
	<g>
		<path class="st1" d="M366.6,345l4.7,29.6l-26.6,13.6l-3.9-3.9V341L366.6,345z M346.7,393.1l29.6,4.7l4.7,29.5l-26.7,13.6
			l-13.5-13.4v-22.8L346.7,393.1z"/>
	</g>
	<g>
		<path class="st1" d="M385.4,317.2l13.8,2.1l6.5,39.2L393,365l-21.2-21.2L385.4,317.2z"/>
	</g>
	<g>
		<path class="st1" d="M342.7,535.8l-1.9,0.9v-12.4L342.7,535.8z M347.6,559l4.7,29.5l-11.5,5.9v-36.5L347.6,559z"/>
	</g>
</g>
<path class="st3" d="M582.1,776.4l65.4,41.4l-27.6-64.1H429L582.1,776.4z"/>
<g>
	<path class="st1" d="M275.3,140.8c0,10.2,8.2,18.4,18.4,18.4s18.4-8.2,18.4-18.4 M366.6,140.8c0,10.2,8.2,18.4,18.4,18.4
		s18.4-8.2,18.4-18.4"/>
	<g>
		<path class="st2" d="M265.9,123.9c0,15.3,12.4,27.7,27.7,27.7s27.7-12.4,27.7-27.7 M357.3,123.9c0,15.3,12.4,27.7,27.7,27.7
			s27.7-12.4,27.7-27.7"/>
	</g>
</g>
<path class="st1" d="M339.5,240.8c-11.4,0-20.6,9.2-20.6,20.6s9.2,20.6,20.6,20.6c11.4,0,20.6-9.2,20.6-20.6
	C360.1,250.1,350.9,240.8,339.5,240.8z"/>
<path class="st2" d="M311.9,114h54.9l12.9,50.2l-18.1,100.3h-44.5L299,164.2L311.9,114z"/>
<g>
	<path class="st2" d="M344.8,97.4V115h11.7V97.4c0-3.2-2.6-5.8-5.8-5.8s-5.8,2.6-5.8,5.8H344.8z M322,97.4V115h11.7V97.4
		c0-3.2-2.6-5.8-5.8-5.8S322.1,94.2,322,97.4L322,97.4z"/>
</g>
<path class="st0" d="M332.8,255.1c0-1.6-1.3-2.9-2.8-2.8c-1.5,0-2.8,1.3-2.8,2.8s1.2,2.8,2.8,2.8
	C331.5,257.9,332.8,256.7,332.8,255.1L332.8,255.1z"/>
<path class="st3" d="M305.3,161.8l11.8-1.8v104.5l-17.7-97.9L305.3,161.8z M373.9,161.4l5.5,4.5l-17.3,95.4V159.7L373.9,161.4z"/>
<path class="st4" d="M311.9,114h54.9l12.9,50.2l-0.3,1.7l-17.3,95.4l-0.5,3.2h-44.5l-17.7-97.9l-0.4-2.4L311.9,114z"/>
<g>
	<path class="st2" d="M311.1,155.6c-9.1,0-16.4,7.3-16.4,16.4c0,9.1,7.3,16.4,16.4,16.4s16.4-7.3,16.4-16.4
		C327.5,162.9,320.2,155.6,311.1,155.6z M367.6,155.6c-9.1,0-16.4,7.3-16.4,16.4c0,9.1,7.3,16.4,16.4,16.4c9.1,0,16.4-7.3,16.4-16.4
		C384,162.9,376.7,155.6,367.6,155.6z"/>
</g>
<g>
	<path class="st5" d="M369,165.5c-4.2,0-7.6,3.4-7.6,7.6c0,4.2,3.4,7.6,7.6,7.6c4.2,0,7.6-3.4,7.6-7.6
		C376.6,168.9,373.2,165.5,369,165.5z"/>
	<path class="st0" d="M368.9,167.1c-3.3,0-6,2.7-6,6s2.7,6,6,6s6-2.7,6-6S372.3,167.1,368.9,167.1z"/>
	<path class="st3" d="M367.5,170.1c-0.8,0-1.5,0.7-1.5,1.5s0.7,1.5,1.5,1.5s1.5-0.7,1.5-1.5S368.3,170.2,367.5,170.1z"/>
	<g>
		<path class="st5" d="M309.9,165.5c-4.2,0-7.6,3.4-7.6,7.6c0,4.2,3.4,7.6,7.6,7.6c4.2,0,7.6-3.4,7.6-7.6
			C317.5,168.9,314.1,165.5,309.9,165.5z"/>
		<path class="st0" d="M309.8,167.1c-3.3,0-6,2.7-6,6s2.7,6,6,6s6-2.7,6-6S313.2,167.1,309.8,167.1z"/>
		<path class="st3" d="M308.4,170.1c-0.8,0-1.5,0.7-1.5,1.5s0.7,1.5,1.5,1.5s1.5-0.7,1.5-1.5S309.2,170.2,308.4,170.1z"/>
	</g>
	<path class="st0" d="M384.8,172.1c0-6.7-5.4-12.1-12.1-12.1c-6.7,0-12.1,5.4-12.1,12.1 M317.9,172.1c0-6.7-5.4-12.1-12.1-12.1
		c-6.7,0-12.1,5.4-12.1,12.1"/>
</g>
<g>
	<path class="st0" d="M330.4,254.8h-0.8v-18h0.8V254.8z M354,255.1c0-1.6-1.3-2.9-2.8-2.8c-1.5,0-2.8,1.3-2.8,2.8s1.2,2.8,2.8,2.8
		C352.7,257.9,354,256.7,354,255.1L354,255.1z"/>
	<path class="st0" d="M351.5,254.8h-0.8v-18h0.8V254.8z"/>
</g>
</svg>
