<svg xmlns="http://www.w3.org/2000/svg" id="Layer_2" viewBox="0 0 1042 1224">
  <style>
    .st0{fill:none}.st2{fill:#fff}.st3{fill:#373033}.st4{fill:#884e00}.st5{fill:#d39d60}.st6{fill:#f1e3c5}
  </style>
  <pattern id="Unnamed_Pattern" width="69" height="69" x="125" y="1224" overflow="visible" patternUnits="userSpaceOnUse" viewBox="2.1 -70.9 69 69">
    <path d="M2.1-70.9h69v69h-69z" class="st0"/>
    <path fill="#f7bc60" d="M2.1-70.9h69v69h-69z"/>
    <path d="M61.8-71.7v.2c-.1.1-.1.1-.2.1-.1.1-.1.3-.1.4-.2.1 0 .2 0 .3v.2c0 .1 0 .3.1.4.1.2.3.4.4.5.2.1.4.6.6.6.2 0 .4-.1.5-.1.2 0 .4 0 .6-.1.2-.1.1-.3.3-.5.1-.1.3 0 .4-.1.2-.1.3-.3.4-.5v-.2c0-.1.1-.2.1-.3 0-.1-.1-.1-.1-.2v-.3c0-.2 0-.4-.1-.5-.4-.7-1.2-.9-2-.8-.2 0-.3.1-.4.2-.2.1-.1.2-.3.2-.1 0-.2.1-.2.2v.3c0 .1 0 .1 0 0M54.1-71.7v.2c-.1.1-.1.1-.2.1-.1.1-.1.3-.1.4-.2.1 0 .2 0 .3v.2c0 .1 0 .3.1.4.1.2.3.4.4.5.2.1.4.6.6.6.2 0 .4-.1.5-.1.2 0 .4 0 .6-.1.2-.1.1-.3.3-.5.1-.1.3 0 .4-.1.2-.1.3-.3.4-.5v-.2c0-.1.1-.2.1-.3 0-.1-.1-.1-.1-.2v-.3c0-.2 0-.4-.1-.5-.4-.7-1.2-.9-2-.8-.2 0-.3.1-.4.2-.2.1-.1.2-.3.2-.1 0-.2.1-.2.2v.3c0 .1 0 .1 0 0M46.4-71.7v.2c-.1.1-.1.1-.2.1-.1.1-.1.3-.1.4-.2.1 0 .2 0 .3v.2c0 .1 0 .3.1.4.1.2.3.4.4.5.2.1.4.6.6.6.2 0 .4-.1.5-.1.2 0 .4 0 .6-.1.2-.1.1-.3.3-.5.1-.1.3 0 .4-.1.2-.1.3-.3.4-.5v-.2c0-.1.1-.2.1-.3 0-.1-.1-.1-.1-.2v-.3c0-.2 0-.4-.1-.5-.4-.7-1.2-.9-2-.8-.2 0-.3.1-.4.2-.2.1-.1.2-.3.2-.1 0-.2.1-.2.2v.3c0 .1 0 .1 0 0M38.8-71.7v.2c-.1.1-.1.1-.2.1-.1.1-.1.3-.1.4-.2.1 0 .2 0 .3v.2c0 .1 0 .3.1.4.1.2.3.4.4.5.2.1.4.6.6.6.2 0 .4-.1.5-.1.2 0 .4 0 .6-.1.2-.1.1-.3.3-.5.1-.1.3 0 .4-.1.2-.1.3-.3.4-.5v-.2c0-.1.1-.2.1-.3 0-.1-.1-.1-.1-.2v-.3c0-.2 0-.4-.1-.5-.4-.7-1.2-.9-2-.8-.2 0-.3.1-.4.2-.2.1-.1.2-.3.2-.1 0-.2.1-.2.2v.3c0 .1 0 .1 0 0M31.1-71.7v.2c-.1.1-.1.1-.2.1-.1.1-.1.3-.1.4-.2.1 0 .2 0 .3v.2c0 .1 0 .3.1.4.1.2.3.4.4.5.2.1.4.6.6.6.2 0 .4-.1.5-.1.2 0 .4 0 .6-.1.2-.1.1-.3.3-.5.1-.1.3 0 .4-.1.2-.1.3-.3.4-.5v-.2c0-.1.1-.2.1-.3 0-.1-.1-.1-.1-.2v-.3c0-.2 0-.4-.1-.5-.4-.7-1.2-.9-2-.8-.2 0-.3.1-.4.2-.2.1-.1.2-.3.2-.1 0-.2.1-.2.2v.3c0 .1 0 .1 0 0M23.4-71.7v.2c-.1.1-.1.1-.2.1-.1.1-.1.3-.1.4-.2.1 0 .2 0 .3v.2c0 .1 0 .3.1.4.1.2.3.4.4.5.2.1.4.6.6.6.2 0 .4-.1.5-.1.2 0 .4 0 .6-.1.2-.1.1-.3.3-.5.1-.1.3 0 .4-.1.2-.1.3-.3.4-.5v-.2c0-.1.1-.2.1-.3 0-.1-.1-.1-.1-.2v-.3c0-.2 0-.4-.1-.5-.4-.7-1.2-.9-2-.8-.2 0-.3.1-.4.2-.2.1-.1.2-.3.2-.1 0-.2.1-.2.2v.3c0 .1 0 .1 0 0M15.8-71.7v.2c-.1.1-.1.1-.2.1-.1.1-.1.3-.1.4-.2.1 0 .2 0 .3v.2c0 .1 0 .3.1.4.1.2.3.4.4.5.2.1.4.6.6.6.2 0 .4-.1.5-.1.2 0 .4 0 .6-.1.2-.1.1-.3.3-.5.1-.1.3 0 .4-.1.2-.1.3-.3.4-.5v-.2c0-.1.1-.2.1-.3 0-.1-.1-.1-.1-.2v-.3c0-.2 0-.4-.1-.5-.4-.7-1.2-.9-2-.8-.2 0-.3.1-.4.2-.2.1-.1.2-.3.2-.1 0-.2.1-.2.2v.3c0 .1 0 .1 0 0M8.1-71.7v.2l-.2.2c-.1.1-.1.3-.1.4-.2.1 0 .2 0 .3v.2c0 .1 0 .3.1.4.1.2.3.4.4.5.2.1.4.6.6.6.2 0 .4-.1.5-.1.2 0 .4 0 .6-.1.2-.1.1-.3.3-.5.1-.1.3 0 .4-.1.2-.1.3-.3.4-.5v-.2c0-.1.1-.2.1-.3 0-.1-.1-.1-.1-.2v-.3c0-.2 0-.4-.1-.5-.4-.7-1.2-.9-2-.8-.2 0-.3.1-.4.2-.2.1-.1.2-.3.2-.1 0-.2.1-.2.2v.2c0 .1 0 .1 0 0M.4-71.7v.2c-.1.1-.1.1-.2.1-.1.1-.1.3-.1.4-.2.1 0 .2 0 .3v.2c0 .1 0 .3.1.4.1.2.3.4.4.5.2.2.4.6.6.7.2 0 .4-.1.5-.1.2 0 .4 0 .6-.1.2-.1.1-.3.3-.5.1-.1.3 0 .4-.1.2-.1.3-.3.4-.5v-.2c0-.1.1-.2.1-.3 0-.1-.1-.1-.1-.2v-.3c0-.2 0-.4-.1-.5-.4-.7-1.2-.9-2-.8-.2 0-.3.1-.4.2-.2.1-.1.2-.3.2-.1 0-.2.1-.2.2v.2c0 .1 0 .1 0 0" class="st2"/>
    <g>
      <path d="M69.4-71.7v.2c-.1.1-.1.1-.2.1-.1.1-.1.3-.1.4-.2.1 0 .2 0 .3v.2c0 .1 0 .3.1.4.1.2.3.4.4.5.2.1.4.6.6.6.2 0 .4-.1.5-.1.2 0 .4 0 .6-.1.2-.1.1-.3.3-.5.1-.1.3 0 .4-.1.2-.1.3-.3.4-.5v-.2c0-.1.1-.2.1-.3 0-.1-.1-.1-.1-.2v-.3c0-.2 0-.4-.1-.5-.4-.7-1.2-.9-2-.8-.2 0-.3.1-.4.2-.2.1-.1.2-.3.2-.1 0-.2.1-.2.2v.3c0 .1 0 .1 0 0" class="st2"/>
    </g>
    <path d="M.5-71.7v.2c-.1.1-.1.1-.2.1-.1.1-.1.3-.1.4-.2.1 0 .2 0 .3v.2c0 .1 0 .3.1.4.1.2.3.4.4.5.2.2.3.6.6.7.2 0 .4-.1.5-.1.2 0 .4 0 .6-.1.2-.1.1-.3.3-.5.1-.1.3 0 .4-.1.2-.1.3-.3.4-.5v-.2c0-.1.1-.2.1-.3 0-.1-.1-.1-.1-.2v-.3c0-.2 0-.4-.1-.5-.4-.7-1.2-.9-2-.8-.2 0-.3.1-.4.2-.2.1-.1.2-.3.2-.1 0-.2.1-.2.2v.2c0 .1 0 .1 0 0" class="st2"/>
    <g>
      <path d="M69.4-64v.2c-.1.1-.1.1-.2.1-.1.1-.1.3-.1.4-.2.1 0 .2 0 .3v.2c0 .1 0 .3.1.4.1.2.3.4.4.5.2.1.4.6.6.6.2 0 .4-.1.5-.1.2 0 .4 0 .6-.1.2-.1.1-.3.3-.5.1-.1.3 0 .4-.1.2-.1.3-.3.4-.5v-.2c0-.1.1-.2.1-.3 0-.1-.1-.1-.1-.2v-.3c0-.2 0-.4-.1-.5-.4-.7-1.2-.9-2-.8-.2 0-.3.1-.4.2-.2.1-.1.2-.3.2-.1 0-.2.1-.2.2v.3M61.8-64v.2c-.1.1-.1.1-.2.1-.1.1-.1.3-.1.4-.2.1 0 .2 0 .3v.2c0 .1 0 .3.1.4.1.2.3.4.4.5.2.1.4.6.6.6.2 0 .4-.1.5-.1.2 0 .4 0 .6-.1.2-.1.1-.3.3-.5.1-.1.3 0 .4-.1.2-.1.3-.3.4-.5v-.2c0-.1.1-.2.1-.3 0-.1-.1-.1-.1-.2v-.3c0-.2 0-.4-.1-.5-.4-.7-1.2-.9-2-.8-.2 0-.3.1-.4.2-.2.1-.1.2-.3.2-.1 0-.2.1-.2.2v.3M54.1-64v.2c-.1.1-.1.1-.2.1-.1.1-.1.3-.1.4-.2.1 0 .2 0 .3v.2c0 .1 0 .3.1.4.1.2.3.4.4.5.2.1.4.6.6.6.2 0 .4-.1.5-.1.2 0 .4 0 .6-.1.2-.1.1-.3.3-.5.1-.1.3 0 .4-.1.2-.1.3-.3.4-.5v-.2c0-.1.1-.2.1-.3 0-.1-.1-.1-.1-.2v-.3c0-.2 0-.4-.1-.5-.4-.7-1.2-.9-2-.8-.2 0-.3.1-.4.2-.2.1-.1.2-.3.2-.1 0-.2.1-.2.2v.3M46.5-64v.2c-.1.1-.1.1-.2.1-.1.1-.1.3-.1.4-.2.1 0 .2 0 .3v.2c0 .1 0 .3.1.4.1.2.3.4.4.5.2.1.4.6.6.6.2 0 .4-.1.5-.1.2 0 .4 0 .6-.1.2-.1.1-.3.3-.5.1-.1.3 0 .4-.1.2-.1.3-.3.4-.5v-.2c0-.1.1-.2.1-.3 0-.1-.1-.1-.1-.2v-.3c0-.2 0-.4-.1-.5-.4-.7-1.2-.9-2-.8-.2 0-.3.1-.4.2-.2.1-.1.2-.3.2-.1 0-.2.1-.2.2v.3M38.8-64v.2c-.1.1-.1.1-.2.1-.1.1-.1.3-.1.4-.2.1 0 .2 0 .3v.2c0 .1 0 .3.1.4.1.2.3.4.4.5.2.1.4.6.6.6.2 0 .4-.1.5-.1.2 0 .4 0 .6-.1.2-.1.1-.3.3-.5.1-.1.3 0 .4-.1.2-.1.3-.3.4-.5v-.2c0-.1.1-.2.1-.3 0-.1-.1-.1-.1-.2v-.3c0-.2 0-.4-.1-.5-.4-.7-1.2-.9-2-.8-.2 0-.3.1-.4.2-.2.1-.1.2-.3.2-.1 0-.2.1-.2.2v.3M31.1-64v.2c-.1.1-.1.1-.2.1-.1.1-.1.3-.1.4-.2.1 0 .2 0 .3v.2c0 .1 0 .3.1.4.1.2.3.4.4.5.2.1.4.6.6.6.2 0 .4-.1.5-.1.2 0 .4 0 .6-.1.2-.1.1-.3.3-.5.1-.1.3 0 .4-.1.2-.1.3-.3.4-.5v-.2c0-.1.1-.2.1-.3 0-.1-.1-.1-.1-.2v-.3c0-.2 0-.4-.1-.5-.4-.7-1.2-.9-2-.8-.2 0-.3.1-.4.2-.2.1-.1.2-.3.2-.1 0-.2.1-.2.2v.3M23.5-64v.2c-.1.1-.1.1-.2.1-.1.1-.1.3-.1.4-.2.1 0 .2 0 .3v.2c0 .1 0 .3.1.4.1.2.3.4.4.5.2.1.4.6.6.6.2 0 .4-.1.5-.1.2 0 .4 0 .6-.1.2-.1.1-.3.3-.5.1-.1.3 0 .4-.1.2-.1.3-.3.4-.5v-.2c0-.1.1-.2.1-.3 0-.1-.1-.1-.1-.2v-.3c0-.2 0-.4-.1-.5-.4-.7-1.2-.9-2-.8-.2 0-.3.1-.4.2-.2.1-.1.2-.3.2-.1 0-.2.1-.2.2v.3M15.8-64v.2c-.1.1-.1.1-.2.1-.1.1-.1.3-.1.4-.2.1 0 .2 0 .3v.2c0 .1 0 .3.1.4.1.2.3.4.4.5.2.1.4.6.6.6.2 0 .4-.1.5-.1.2 0 .4 0 .6-.1.2-.1.1-.3.3-.5.1-.1.3 0 .4-.1.2-.1.3-.3.4-.5v-.2c0-.1.1-.2.1-.3 0-.1-.1-.1-.1-.2v-.3c0-.2 0-.4-.1-.5-.4-.7-1.2-.9-2-.8-.2 0-.3.1-.4.2-.2.1-.1.2-.3.2-.1 0-.2.1-.2.2v.3M8.2-64v.2c-.1.1-.2.1-.2.1-.1.1-.1.3-.1.4-.2.1 0 .2 0 .3v.2c0 .1 0 .3.1.4 0 .2.2.4.3.5.2.1.4.6.6.6.2 0 .4-.1.5-.1.2 0 .4 0 .6-.1.2-.1.1-.3.3-.5.1-.1.3 0 .4-.1.2-.1.3-.3.4-.5v-.2c0-.1.1-.2.1-.3 0-.1-.1-.1-.1-.2v-.3c0-.2 0-.4-.1-.5-.4-.7-1.2-.9-2-.8-.2 0-.3.1-.4.2-.2.1-.1.2-.3.2-.1 0-.2.1-.2.2.1.3.1.2.1.3-.1 0-.1 0 0 0M.5-64v.2c-.1.1-.1.1-.2.1-.1.1-.1.3-.1.4-.2.1 0 .2 0 .3v.2c0 .1 0 .3.1.4.1.2.3.4.4.5.2.1.4.6.6.6.2 0 .4-.1.5-.1.2 0 .4 0 .6-.1.2-.1.1-.3.3-.5.1 0 .3.1.4 0 .2-.1.3-.3.4-.5v-.2c0-.1.1-.2.1-.3 0-.1-.1-.1-.1-.2v-.3c0-.2 0-.4-.1-.5-.4-.7-1.2-.9-2-.8-.2 0-.3.1-.4.2-.2.1-.1.2-.3.2-.1 0-.2.1-.2.2v.2" class="st2"/>
      <g>
        <path d="M69.4-56.3v.2c-.1.1-.1.1-.2.1-.1.1-.1.3-.1.4-.2.1 0 .2 0 .3v.2c0 .1 0 .3.1.4.1.2.3.4.4.5.2.1.4.6.6.6.2 0 .4-.1.5-.1.2 0 .4 0 .6-.1.2-.1.1-.3.3-.5.1-.1.3 0 .4-.1.2-.1.3-.3.4-.5v-.2c0-.1.1-.2.1-.3 0-.1-.1-.1-.1-.2v-.3c0-.2 0-.4-.1-.5-.4-.7-1.2-.9-2-.8-.2 0-.3.1-.4.2-.2.1-.1.2-.3.2-.1 0-.2.1-.2.2v.3M61.8-56.3v.2c-.1.1-.1.1-.2.1-.1.1-.1.3-.1.4-.2.1 0 .2 0 .3v.2c0 .1 0 .3.1.4.1.2.3.4.4.5.2.1.4.6.6.6.2 0 .4-.1.5-.1.2 0 .4 0 .6-.1.2-.1.1-.3.3-.5.1-.1.3 0 .4-.1.2-.1.3-.3.4-.5v-.2c0-.1.1-.2.1-.3 0-.1-.1-.1-.1-.2v-.3c0-.2 0-.4-.1-.5-.4-.7-1.2-.9-2-.8-.2 0-.3.1-.4.2-.2.1-.1.2-.3.2-.1 0-.2.1-.2.2v.3M54.1-56.3v.2c-.1 0-.1 0-.2.1s-.1.3-.1.4c-.2.1 0 .2 0 .3v.2c0 .1 0 .3.1.4.1.2.3.4.4.5.2.1.4.6.6.6.2 0 .4-.1.5-.1.2 0 .4 0 .6-.1.2-.1.1-.3.3-.5.1-.1.3 0 .4-.1.2-.1.3-.3.4-.5v-.2c0-.1.1-.2.1-.3 0-.1-.1-.1-.1-.2v-.3c0-.2 0-.4-.1-.5-.4-.7-1.2-.9-2-.8-.2 0-.3.1-.4.2-.2.1-.1.2-.3.2-.1 0-.2.1-.2.2v.3M46.5-56.3v.2c-.1.1-.1.1-.2.1-.1.1-.1.3-.1.4-.2.1 0 .2 0 .3v.2c0 .1 0 .3.1.4.1.2.3.4.4.5.2.1.4.6.6.6.2 0 .4-.1.5-.1.2 0 .4 0 .6-.1.2-.1.1-.3.3-.5.1-.1.3 0 .4-.1.2-.1.3-.3.4-.5v-.2c0-.1.1-.2.1-.3 0-.1-.1-.1-.1-.2v-.3c0-.2 0-.4-.1-.5-.4-.7-1.2-.9-2-.8-.2 0-.3.1-.4.2-.2.1-.1.2-.3.2-.1 0-.2.1-.2.2v.3M38.8-56.3v.2c-.1.1-.1.1-.2.1-.1.1-.1.3-.1.4-.2.1 0 .2 0 .3v.2c0 .1 0 .3.1.4.1.2.3.4.4.5.2.1.4.6.6.6.2 0 .4-.1.5-.1.2 0 .4 0 .6-.1.2-.1.1-.3.3-.5.1-.1.3 0 .4-.1.2-.1.3-.3.4-.5v-.2c0-.1.1-.2.1-.3 0-.1-.1-.1-.1-.2v-.3c0-.2 0-.4-.1-.5-.4-.7-1.2-.9-2-.8-.2 0-.3.1-.4.2-.2.1-.1.2-.3.2-.1 0-.2.1-.2.2v.3M31.1-56.3v.2c-.1.1-.1.1-.2.1-.1.1-.1.3-.1.4-.2.1 0 .2 0 .3v.2c0 .1 0 .3.1.4.1.2.3.4.4.5.2.1.4.6.6.6.2 0 .4-.1.5-.1.2 0 .4 0 .6-.1.2-.1.1-.3.3-.5.1-.1.3 0 .4-.1.2-.1.3-.3.4-.5v-.2c0-.1.1-.2.1-.3 0-.1-.1-.1-.1-.2v-.3c0-.2 0-.4-.1-.5-.4-.7-1.2-.9-2-.8-.2 0-.3.1-.4.2-.2.1-.1.2-.3.2-.1 0-.2.1-.2.2v.3M23.5-56.3v.2c-.1.1-.1.1-.2.1-.1.1-.1.3-.1.4-.2.1 0 .2 0 .3v.2c0 .1 0 .3.1.4.1.2.3.4.4.5.2.1.4.6.6.6.2 0 .4-.1.5-.1.2 0 .4 0 .6-.1.2-.1.1-.3.3-.5.1-.1.3 0 .4-.1.2-.1.3-.3.4-.5v-.2c0-.1.1-.2.1-.3 0-.1-.1-.1-.1-.2v-.3c0-.2 0-.4-.1-.5-.4-.7-1.2-.9-2-.8-.2 0-.3.1-.4.2-.2.1-.1.2-.3.2-.1 0-.2.1-.2.2v.3M15.8-56.3v.2c-.1.1-.1.1-.2.1-.1.1-.1.3-.1.4-.2.1 0 .2 0 .3v.2c0 .1 0 .3.1.4.1.2.3.4.4.5.2.1.4.6.6.6.2 0 .4-.1.5-.1.2 0 .4 0 .6-.1.2-.1.1-.3.3-.5.1-.1.3 0 .4-.1.2-.1.3-.3.4-.5v-.2c0-.1.1-.2.1-.3 0-.1-.1-.1-.1-.2v-.3c0-.2 0-.4-.1-.5-.4-.7-1.2-.9-2-.8-.2 0-.3.1-.4.2-.2.1-.1.2-.3.2-.1 0-.2.1-.2.2v.3M8.2-56.3v.2c-.1 0-.2 0-.2.1-.1.1-.1.3-.1.4-.2.1 0 .2 0 .3v.2c0 .1 0 .3.1.4.1.2.3.4.4.5.2.1.4.6.6.6.2 0 .4-.1.5-.1.2 0 .4 0 .6-.1.2-.1.1-.3.3-.5.1-.1.3 0 .4-.1.2-.1.3-.3.4-.5v-.2c0-.1.1-.2.1-.3 0-.1-.1-.1-.1-.2v-.3c0-.2 0-.4-.1-.5-.4-.7-1.2-.9-2-.8-.2 0-.3.1-.4.2-.2.1-.1.2-.3.2-.1 0-.2.1-.2.2v.3c-.1 0-.1 0 0 0M.5-56.3v.2c-.1.1-.1.1-.2.1-.1.1-.1.3-.1.4-.2.1 0 .2 0 .3v.2c0 .1 0 .3.1.4.1.2.3.4.4.5.2.1.4.6.6.6.2 0 .4-.1.5-.1.2 0 .4 0 .6-.1.2-.1.1-.3.3-.5.1-.1.3 0 .4-.1.2-.1.3-.3.4-.5v-.2c0-.1.1-.2.1-.3 0-.1-.1-.1-.1-.2v-.3c0-.2 0-.4-.1-.5-.4-.7-1.2-.9-2-.8-.2 0-.3.1-.4.2-.2.1-.1.2-.3.2-.1 0-.2.1-.2.2v.3" class="st2"/>
      </g>
      <g>
        <path d="M69.4-48.7v.2c-.1.1-.1.1-.2.1-.1.1-.1.3-.1.4-.2.1 0 .2 0 .3v.2c0 .1 0 .3.1.4.1.2.3.4.4.5.2.1.4.6.6.6.2 0 .4-.1.5-.1.2 0 .4 0 .6-.1.2-.1.1-.3.3-.5.1-.1.3 0 .4-.1.2-.1.3-.3.4-.5v-.2c0-.1.1-.2.1-.3 0-.1-.1-.1-.1-.2v-.3c0-.2 0-.4-.1-.5-.4-.7-1.2-.9-2-.8-.2 0-.3.1-.4.2-.2.1-.1.2-.3.2-.1 0-.2.1-.2.2v.3M61.8-48.7v.2c-.1.1-.1.1-.2.1-.1.1-.1.3-.1.4-.2.1 0 .2 0 .3v.2c0 .1 0 .3.1.4.1.2.3.4.4.5.2.1.4.6.6.6.2 0 .4-.1.5-.1.2 0 .4 0 .6-.1.2-.1.1-.3.3-.5.1-.1.3 0 .4-.1.2-.1.3-.3.4-.5v-.2c0-.1.1-.2.1-.3 0-.1-.1-.1-.1-.2v-.3c0-.2 0-.4-.1-.5-.4-.7-1.2-.9-2-.8-.2 0-.3.1-.4.2-.2.1-.1.2-.3.2-.1 0-.2.1-.2.2v.3M54.1-48.7v.2c-.1.1-.1.1-.2.1-.1.1-.1.3-.1.4-.2.1 0 .2 0 .3v.2c0 .1 0 .3.1.4.1.2.3.4.4.5.2.1.4.6.6.6.2 0 .4-.1.5-.1.2 0 .4 0 .6-.1.2-.1.1-.3.3-.5.1-.1.3 0 .4-.1.2-.1.3-.3.4-.5v-.2c0-.1.1-.2.1-.3 0-.1-.1-.1-.1-.2v-.3c0-.2 0-.4-.1-.5-.4-.7-1.2-.9-2-.8-.2 0-.3.1-.4.2-.2.1-.1.2-.3.2-.1 0-.2.1-.2.2v.3M46.5-48.7v.2c-.1.1-.1.1-.2.1-.1.1-.1.3-.1.4-.2.1 0 .2 0 .3v.2c0 .1 0 .3.1.4.1.2.3.4.4.5.2.1.4.6.6.6.2 0 .4-.1.5-.1.2 0 .4 0 .6-.1.2-.1.1-.3.3-.5.1-.1.3 0 .4-.1.2-.1.3-.3.4-.5v-.2c0-.1.1-.2.1-.3 0-.1-.1-.1-.1-.2v-.3c0-.2 0-.4-.1-.5-.4-.7-1.2-.9-2-.8-.2 0-.3.1-.4.2-.2.1-.1.2-.3.2-.1 0-.2.1-.2.2v.3M38.8-48.7v.2c-.1.1-.1.1-.2.1-.1.1-.1.3-.1.4-.2.1 0 .2 0 .3v.2c0 .1 0 .3.1.4.1.2.3.4.4.5.2.1.4.6.6.6.2 0 .4-.1.5-.1.2 0 .4 0 .6-.1.2-.1.1-.3.3-.5.1-.1.3 0 .4-.1.2-.1.3-.3.4-.5v-.2c0-.1.1-.2.1-.3 0-.1-.1-.1-.1-.2v-.3c0-.2 0-.4-.1-.5-.4-.7-1.2-.9-2-.8-.2 0-.3.1-.4.2-.2.1-.1.2-.3.2-.1 0-.2.1-.2.2v.3M31.1-48.7v.2c-.1.1-.1.1-.2.1-.1.1-.1.3-.1.4-.2.1 0 .2 0 .3v.2c0 .1 0 .3.1.4.1.2.3.4.4.5.2.1.4.6.6.6.2 0 .4-.1.5-.1.2 0 .4 0 .6-.1.2-.1.1-.3.3-.5.1-.1.3 0 .4-.1.2-.1.3-.3.4-.5v-.2c0-.1.1-.2.1-.3 0-.1-.1-.1-.1-.2v-.3c0-.2 0-.4-.1-.5-.4-.7-1.2-.9-2-.8-.2 0-.3.1-.4.2-.2.1-.1.2-.3.2-.1 0-.2.1-.2.2v.3M23.5-48.7v.2c-.1.1-.1.1-.2.1-.1.1-.1.3-.1.4-.2.1 0 .2 0 .3v.2c0 .1 0 .3.1.4.1.2.3.4.4.5.2.1.4.6.6.6.2 0 .4-.1.5-.1.2 0 .4 0 .6-.1.2-.1.1-.3.3-.5.1-.1.3 0 .4-.1.2-.1.3-.3.4-.5v-.2c0-.1.1-.2.1-.3 0-.1-.1-.1-.1-.2v-.3c0-.2 0-.4-.1-.5-.4-.7-1.2-.9-2-.8-.2 0-.3.1-.4.2-.2.1-.1.2-.3.2-.1 0-.2.1-.2.2v.3M15.8-48.7v.2c-.1.1-.1.1-.2.1-.1.1-.1.3-.1.4-.2.1 0 .2 0 .3v.2c0 .1 0 .3.1.4.1.2.3.4.4.5.2.1.4.6.6.6.2 0 .4-.1.5-.1.2 0 .4 0 .6-.1.2-.1.1-.3.3-.5.1-.1.3 0 .4-.1.2-.1.3-.3.4-.5v-.2c0-.1.1-.2.1-.3 0-.1-.1-.1-.1-.2v-.3c0-.2 0-.4-.1-.5-.4-.7-1.2-.9-2-.8-.2 0-.3.1-.4.2-.2.1-.1.2-.3.2-.1 0-.2.1-.2.2v.3M8.2-48.7v.2c-.1.1-.2.1-.2.1-.1.1-.1.3-.1.4-.2.1 0 .2 0 .3v.2c0 .1 0 .3.1.4.1.2.3.4.4.5.1.2.3.6.5.6s.4-.1.5-.1c.2 0 .4 0 .6-.1.2-.1.1-.3.3-.5.1-.1.3 0 .4-.1.2-.1.3-.3.4-.5v-.2c0-.1.1-.2.1-.3 0-.1-.1-.1-.1-.2v-.3c0-.2 0-.4-.1-.5-.4-.7-1.2-.9-2-.8-.2 0-.3.1-.4.2-.2.1-.1.2-.3.2-.1 0-.2.1-.2.2.1.3.1.2.1.3-.1 0-.1 0 0 0M.5-48.7v.2c-.1.1-.1.1-.2.1-.1.1-.1.3-.1.4-.2.1 0 .2 0 .3v.2c0 .1 0 .3.1.4.1.2.3.4.4.5.2.2.3.6.6.6.2 0 .4-.1.5-.1.2 0 .4 0 .6-.1.2-.1.1-.3.3-.5.1-.1.3 0 .4-.1.2-.1.3-.3.4-.5v-.2c0-.1.1-.2.1-.3 0-.1-.1-.1-.1-.2v-.3c0-.2 0-.4-.1-.5-.4-.7-1.2-.9-2-.8-.2 0-.3.1-.4.2-.2.1-.1.2-.3.2-.1 0-.2.1-.2.2v.3" class="st2"/>
      </g>
      <g>
        <path d="M69.4-41v.2c-.1.1-.1.1-.2.1-.1.1-.1.3-.1.4-.2.1 0 .2 0 .3v.2c0 .1 0 .3.1.4.1.2.3.4.4.5.2.1.4.6.6.6.2 0 .4-.1.5-.1.2 0 .4 0 .6-.1.2-.1.1-.3.3-.5.1-.1.3 0 .4-.1.2-.1.3-.3.4-.5v-.2c0-.1.1-.2.1-.3 0-.1-.1-.1-.1-.2v-.3c0-.2 0-.4-.1-.5-.4-.7-1.2-.9-2-.8-.2 0-.3.1-.4.2-.2.1-.1.2-.3.2-.1 0-.2.1-.2.2v.3M61.8-41v.2c-.1.1-.1.1-.2.1-.1.1-.1.3-.1.4-.2.1 0 .2 0 .3v.2c0 .1 0 .3.1.4.1.2.3.4.4.5.2.1.4.6.6.6.2 0 .4-.1.5-.1.2 0 .4 0 .6-.1.2-.1.1-.3.3-.5.1-.1.3 0 .4-.1.2-.1.3-.3.4-.5v-.2c0-.1.1-.2.1-.3 0-.1-.1-.1-.1-.2v-.3c0-.2 0-.4-.1-.5-.4-.7-1.2-.9-2-.8-.2 0-.3.1-.4.2-.2.1-.1.2-.3.2-.1 0-.2.1-.2.2v.3M54.1-41v.2c-.1.1-.1.1-.2.1-.1.1-.1.3-.1.4-.2.1 0 .2 0 .3v.2c0 .1 0 .3.1.4.1.2.3.4.4.5.2.1.4.6.6.6.2 0 .4-.1.5-.1.2 0 .4 0 .6-.1.2-.1.1-.3.3-.5.1-.1.3 0 .4-.1.2-.1.3-.3.4-.5v-.2c0-.1.1-.2.1-.3 0-.1-.1-.1-.1-.2v-.3c0-.2 0-.4-.1-.5-.4-.7-1.2-.9-2-.8-.2 0-.3.1-.4.2-.2.1-.1.2-.3.2-.1 0-.2.1-.2.2v.3M46.5-41v.2c-.1.1-.1.1-.2.1-.1.1-.1.3-.1.4-.2.1 0 .2 0 .3v.2c0 .1 0 .3.1.4.1.2.3.4.4.5.2.1.4.6.6.6.2 0 .4-.1.5-.1.2 0 .4 0 .6-.1.2-.1.1-.3.3-.5.1-.1.3 0 .4-.1.2-.1.3-.3.4-.5v-.2c0-.1.1-.2.1-.3 0-.1-.1-.1-.1-.2v-.3c0-.2 0-.4-.1-.5-.4-.7-1.2-.9-2-.8-.2 0-.3.1-.4.2-.2.1-.1.2-.3.2-.1 0-.2.1-.2.2v.3M38.8-41v.2c-.1.1-.1.1-.2.1-.1.1-.1.3-.1.4-.2.1 0 .2 0 .3v.2c0 .1 0 .3.1.4.1.2.3.4.4.5.2.1.4.6.6.6.2 0 .4-.1.5-.1.2 0 .4 0 .6-.1.2-.1.1-.3.3-.5.1-.1.3 0 .4-.1.2-.1.3-.3.4-.5v-.2c0-.1.1-.2.1-.3 0-.1-.1-.1-.1-.2v-.3c0-.2 0-.4-.1-.5-.4-.7-1.2-.9-2-.8-.2 0-.3.1-.4.2-.2.1-.1.2-.3.2-.1 0-.2.1-.2.2v.3M31.1-41v.2c-.1.1-.1.1-.2.1-.1.1-.1.3-.1.4-.2.1 0 .2 0 .3v.2c0 .1 0 .3.1.4.1.2.3.4.4.5.2.1.4.6.6.6.2 0 .4-.1.5-.1.2 0 .4 0 .6-.1.2-.1.1-.3.3-.5.1-.1.3 0 .4-.1.2-.1.3-.3.4-.5v-.2c0-.1.1-.2.1-.3 0-.1-.1-.1-.1-.2v-.3c0-.2 0-.4-.1-.5-.4-.7-1.2-.9-2-.8-.2 0-.3.1-.4.2-.2.1-.1.2-.3.2-.1 0-.2.1-.2.2v.3M23.5-41v.2c-.1.1-.1.1-.2.1-.1.1-.1.3-.1.4-.2.1 0 .2 0 .3v.2c0 .1 0 .3.1.4.1.2.3.4.4.5.2.1.4.6.6.6.2 0 .4-.1.5-.1.2 0 .4 0 .6-.1.2-.1.1-.3.3-.5.1-.1.3 0 .4-.1.2-.1.3-.3.4-.5v-.2c0-.1.1-.2.1-.3 0-.1-.1-.1-.1-.2v-.3c0-.2 0-.4-.1-.5-.4-.7-1.2-.9-2-.8-.2 0-.3.1-.4.2-.2.1-.1.2-.3.2-.1 0-.2.1-.2.2v.3M15.8-41v.2c-.1.1-.1.1-.2.1-.1.1-.1.3-.1.4-.2.1 0 .2 0 .3v.2c0 .1 0 .3.1.4.1.2.3.4.4.5.2.1.4.6.6.6.2 0 .4-.1.5-.1.2 0 .4 0 .6-.1.2-.1.1-.3.3-.5.1-.1.3 0 .4-.1.2-.1.3-.3.4-.5v-.2c0-.1.1-.2.1-.3 0-.1-.1-.1-.1-.2v-.3c0-.2 0-.4-.1-.5-.4-.7-1.2-.9-2-.8-.2 0-.3.1-.4.2-.2.1-.1.2-.3.2-.1 0-.2.1-.2.2v.3M8.2-41v.2c-.1 0-.2 0-.2.1-.1.1-.1.3-.1.4-.2.1 0 .2 0 .3v.2c0 .1 0 .3.1.4.1.2.3.4.4.5.2.1.4.6.6.6.2 0 .4-.1.5-.1.2 0 .4 0 .6-.1.2-.1.1-.3.3-.5.1-.1.3 0 .4-.1.2-.1.3-.3.4-.5v-.2c0-.1.1-.2.1-.3 0-.1-.1-.1-.1-.2v-.3c0-.2 0-.4-.1-.5-.4-.7-1.2-.9-2-.8-.2 0-.3.1-.4.2-.2.1-.1.2-.3.2-.1 0-.2.1-.2.2v.3c-.1 0-.1 0 0 0M.5-41v.2c-.1.1-.1.1-.2.1-.1.1-.1.3-.1.4-.2.1 0 .2 0 .3v.2c0 .1 0 .3.1.4.1.2.3.4.4.5.2.1.4.6.6.6.2 0 .4-.1.5-.1.2 0 .4 0 .6-.1.2-.1.1-.3.3-.5h.4c.2-.1.3-.3.4-.5v-.2c0-.1.1-.2.1-.3 0-.1-.1-.1-.1-.2v-.3c0-.2 0-.4-.1-.5-.4-.7-1.2-.9-2-.8-.2 0-.3.1-.4.2-.2.1-.1.2-.3.2-.1 0-.2.1-.2.2v.2" class="st2"/>
      </g>
      <g>
        <path d="M69.4-33.4v.2c-.1.1-.1.1-.2.1-.1.1-.1.3-.1.4-.2.1 0 .2 0 .3v.2c0 .1 0 .3.1.4.1.2.3.4.4.5.2.1.4.6.6.6.2 0 .4-.1.5-.1.2 0 .4 0 .6-.1.2-.1.1-.3.3-.5.1-.1.3 0 .4-.1.2-.1.3-.3.4-.5v-.2c0-.1.1-.2.1-.3 0-.1-.1-.1-.1-.2v-.3c0-.2 0-.4-.1-.5-.4-.7-1.2-.9-2-.8-.2 0-.3.1-.4.2-.2.1-.1.2-.3.2-.1 0-.2.1-.2.2v.3M61.8-33.4v.2c-.1.1-.1.1-.2.1-.1.1-.1.3-.1.4-.2.1 0 .2 0 .3v.2c0 .1 0 .3.1.4.1.2.3.4.4.5.2.1.4.6.6.6.2 0 .4-.1.5-.1.2 0 .4 0 .6-.1.2-.1.1-.3.3-.5.1-.1.3 0 .4-.1.2-.1.3-.3.4-.5v-.2c0-.1.1-.2.1-.3 0-.1-.1-.1-.1-.2v-.3c0-.2 0-.4-.1-.5-.4-.7-1.2-.9-2-.8-.2 0-.3.1-.4.2-.2.1-.1.2-.3.2-.1 0-.2.1-.2.2v.3M54.1-33.4v.2c-.1.1-.1.1-.2.1-.1.1-.1.3-.1.4-.2.1 0 .2 0 .3v.2c0 .1 0 .3.1.4.1.2.3.4.4.5.2.1.4.6.6.6.2 0 .4-.1.5-.1.2 0 .4 0 .6-.1.2-.1.1-.3.3-.5.1-.1.3 0 .4-.1.2-.1.3-.3.4-.5v-.2c0-.1.1-.2.1-.3 0-.1-.1-.1-.1-.2v-.3c0-.2 0-.4-.1-.5-.4-.7-1.2-.9-2-.8-.2 0-.3.1-.4.2-.2.1-.1.2-.3.2-.1 0-.2.1-.2.2v.3M46.5-33.4v.2c-.1.1-.1.1-.2.1-.1.1-.1.3-.1.4-.2.1 0 .2 0 .3v.2c0 .1 0 .3.1.4.1.2.3.4.4.5.2.1.4.6.6.6.2 0 .4-.1.5-.1.2 0 .4 0 .6-.1.2-.1.1-.3.3-.5.1-.1.3 0 .4-.1.2-.1.3-.3.4-.5v-.2c0-.1.1-.2.1-.3 0-.1-.1-.1-.1-.2v-.3c0-.2 0-.4-.1-.5-.4-.7-1.2-.9-2-.8-.2 0-.3.1-.4.2-.2.1-.1.2-.3.2-.1 0-.2.1-.2.2v.3M38.8-33.4v.2c-.1.1-.1.1-.2.1-.1.1-.1.3-.1.4-.2.1 0 .2 0 .3v.2c0 .1 0 .3.1.4.1.2.3.4.4.5.2.1.4.6.6.6.2 0 .4-.1.5-.1.2 0 .4 0 .6-.1.2-.1.1-.3.3-.5.1-.1.3 0 .4-.1.2-.1.3-.3.4-.5v-.2c0-.1.1-.2.1-.3 0-.1-.1-.1-.1-.2v-.3c0-.2 0-.4-.1-.5-.4-.7-1.2-.9-2-.8-.2 0-.3.1-.4.2-.2.1-.1.2-.3.2-.1 0-.2.1-.2.2v.3M31.1-33.4v.2c-.1.1-.1.1-.2.1-.1.1-.1.3-.1.4-.2.1 0 .2 0 .3v.2c0 .1 0 .3.1.4.1.2.3.4.4.5.2.1.4.6.6.6.2 0 .4-.1.5-.1.2 0 .4 0 .6-.1.2-.1.1-.3.3-.5.1-.1.3 0 .4-.1.2-.1.3-.3.4-.5v-.2c0-.1.1-.2.1-.3 0-.1-.1-.1-.1-.2v-.3c0-.2 0-.4-.1-.5-.4-.7-1.2-.9-2-.8-.2 0-.3.1-.4.2-.2.1-.1.2-.3.2-.1 0-.2.1-.2.2v.3M23.5-33.4v.2c-.1.1-.1.1-.2.1-.1.1-.1.3-.1.4-.2.1 0 .2 0 .3v.2c0 .1 0 .3.1.4.1.2.3.4.4.5.2.1.4.6.6.6.2 0 .4-.1.5-.1.2 0 .4 0 .6-.1.2-.1.1-.3.3-.5.1-.1.3 0 .4-.1.2-.1.3-.3.4-.5v-.2c0-.1.1-.2.1-.3 0-.1-.1-.1-.1-.2v-.3c0-.2 0-.4-.1-.5-.4-.7-1.2-.9-2-.8-.2 0-.3.1-.4.2-.2.1-.1.2-.3.2-.1 0-.2.1-.2.2v.3M15.8-33.4v.2c-.1.1-.1.1-.2.1-.1.1-.1.3-.1.4-.2.1 0 .2 0 .3v.2c0 .1 0 .3.1.4.1.2.3.4.4.5.2.1.4.6.6.6.2 0 .4-.1.5-.1.2 0 .4 0 .6-.1.2-.1.1-.3.3-.5.1-.1.3 0 .4-.1.2-.1.3-.3.4-.5v-.2c0-.1.1-.2.1-.3 0-.1-.1-.1-.1-.2v-.3c0-.2 0-.4-.1-.5-.4-.7-1.2-.9-2-.8-.2 0-.3.1-.4.2-.2.1-.1.2-.3.2-.1 0-.2.1-.2.2v.3M8.2-33.4v.2c-.1.1-.2.1-.2.1-.1.1-.1.3-.1.4-.2.1 0 .2 0 .3v.2c0 .1 0 .3.1.4.1.2.3.4.4.5.2.1.4.6.6.6.2 0 .4-.1.5-.1.2 0 .4 0 .6-.1.2-.1.1-.3.3-.5.1-.1.3 0 .4-.1.2-.1.3-.3.4-.5v-.2c0-.1.1-.2.1-.3 0-.1-.1-.1-.1-.2v-.3c0-.2 0-.4-.1-.5-.4-.7-1.2-.9-2-.8-.2 0-.3.1-.4.2-.2.1-.1.2-.3.2-.1 0-.2.1-.2.2v.3c-.1 0-.1 0 0 0M.5-33.4v.2c-.1.1-.1.1-.2.1-.1.1-.1.3-.1.4-.2.1 0 .2 0 .3v.2c0 .1 0 .3.1.4.1.2.3.4.4.5.2.1.4.6.6.6.2 0 .4-.1.5-.1.2 0 .4 0 .6-.1.2-.1.1-.3.3-.5.1-.1.3 0 .4-.1.2-.1.3-.3.4-.5v-.2c0-.1.1-.2.1-.3 0-.1-.1-.1-.1-.2v-.3c0-.2 0-.4-.1-.5-.4-.7-1.2-.9-2-.8-.2 0-.3.1-.4.2-.2.1-.1.2-.3.2-.1 0-.2.1-.2.2v.3" class="st2"/>
      </g>
      <g>
        <path d="M69.4-25.7v.2c-.1.1-.1.1-.2.1-.1.1-.1.3-.1.4-.2.1 0 .2 0 .3v.2c0 .1 0 .3.1.4.1.2.3.4.4.5.2.1.4.6.6.6.2 0 .4-.1.5-.1.2 0 .4 0 .6-.1.2-.1.1-.3.3-.5.1-.1.3 0 .4-.1.2-.1.3-.3.4-.5v-.2c0-.1.1-.2.1-.3 0-.1-.1-.1-.1-.2v-.3c0-.2 0-.4-.1-.5-.4-.7-1.2-.9-2-.8-.2 0-.3.1-.4.2-.2.1-.1.2-.3.2-.1 0-.2.1-.2.2v.3M61.8-25.7v.2c-.1.1-.1.1-.2.1-.1.1-.1.3-.1.4-.2.1 0 .2 0 .3v.2c0 .1 0 .3.1.4.1.2.3.4.4.5.2.1.4.6.6.6.2 0 .4-.1.5-.1.2 0 .4 0 .6-.1.2-.1.1-.3.3-.5.1-.1.3 0 .4-.1.2-.1.3-.3.4-.5v-.2c0-.1.1-.2.1-.3 0-.1-.1-.1-.1-.2v-.3c0-.2 0-.4-.1-.5-.4-.7-1.2-.9-2-.8-.2 0-.3.1-.4.2-.2.1-.1.2-.3.2-.1 0-.2.1-.2.2v.3M54.1-25.7v.2c-.1.1-.1.1-.2.1-.1.1-.1.3-.1.4-.2.1 0 .2 0 .3v.2c0 .1 0 .3.1.4.1.2.3.4.4.5.2.1.4.6.6.6.2 0 .4-.1.5-.1.2 0 .4 0 .6-.1.2-.1.1-.3.3-.5.1-.1.3 0 .4-.1.2-.1.3-.3.4-.5v-.2c0-.1.1-.2.1-.3 0-.1-.1-.1-.1-.2v-.3c0-.2 0-.4-.1-.5-.4-.7-1.2-.9-2-.8-.2 0-.3.1-.4.2-.2.1-.1.2-.3.2-.1 0-.2.1-.2.2v.3M46.5-25.7v.2c-.1.1-.1.1-.2.1-.1.1-.1.3-.1.4-.2.1 0 .2 0 .3v.2c0 .1 0 .3.1.4.1.2.3.4.4.5.2.1.4.6.6.6.2 0 .4-.1.5-.1.2 0 .4 0 .6-.1.2-.1.1-.3.3-.5.1-.1.3 0 .4-.1.2-.1.3-.3.4-.5v-.2c0-.1.1-.2.1-.3 0-.1-.1-.1-.1-.2v-.3c0-.2 0-.4-.1-.5-.4-.7-1.2-.9-2-.8-.2 0-.3.1-.4.2-.2.1-.1.2-.3.2-.1 0-.2.1-.2.2v.3M38.8-25.7v.2c-.1.1-.1.1-.2.1-.1.1-.1.3-.1.4-.2.1 0 .2 0 .3v.2c0 .1 0 .3.1.4.1.2.3.4.4.5.2.1.4.6.6.6.2 0 .4-.1.5-.1.2 0 .4 0 .6-.1.2-.1.1-.3.3-.5.1-.1.3 0 .4-.1.2-.1.3-.3.4-.5v-.2c0-.1.1-.2.1-.3 0-.1-.1-.1-.1-.2v-.3c0-.2 0-.4-.1-.5-.4-.7-1.2-.9-2-.8-.2 0-.3.1-.4.2-.2.1-.1.2-.3.2-.1 0-.2.1-.2.2v.3M31.1-25.7v.2c-.1.1-.1.1-.2.1-.1.1-.1.3-.1.4-.2.1 0 .2 0 .3v.2c0 .1 0 .3.1.4.1.2.3.4.4.5.2.1.4.6.6.6.2 0 .4-.1.5-.1.2 0 .4 0 .6-.1.2-.1.1-.3.3-.5.1-.1.3 0 .4-.1.2-.1.3-.3.4-.5v-.2c0-.1.1-.2.1-.3 0-.1-.1-.1-.1-.2v-.3c0-.2 0-.4-.1-.5-.4-.7-1.2-.9-2-.8-.2 0-.3.1-.4.2-.2.1-.1.2-.3.2-.1 0-.2.1-.2.2v.3M23.5-25.7v.2c-.1.1-.1.1-.2.1-.1.1-.1.3-.1.4-.2.1 0 .2 0 .3v.2c0 .1 0 .3.1.4.1.2.3.4.4.5.2.1.4.6.6.6.2 0 .4-.1.5-.1.2 0 .4 0 .6-.1.2-.1.1-.3.3-.5.1-.1.3 0 .4-.1.2-.1.3-.3.4-.5v-.2c0-.1.1-.2.1-.3 0-.1-.1-.1-.1-.2v-.3c0-.2 0-.4-.1-.5-.4-.7-1.2-.9-2-.8-.2 0-.3.1-.4.2-.2.1-.1.2-.3.2-.1 0-.2.1-.2.2v.3M15.8-25.7v.2c-.1.1-.1.1-.2.1-.1.1-.1.3-.1.4-.2.1 0 .2 0 .3v.2c0 .1 0 .3.1.4.1.2.3.4.4.5.2.1.4.6.6.6.2 0 .4-.1.5-.1.2 0 .4 0 .6-.1.2-.1.1-.3.3-.5.1-.1.3 0 .4-.1.2-.1.3-.3.4-.5v-.2c0-.1.1-.2.1-.3 0-.1-.1-.1-.1-.2v-.3c0-.2 0-.4-.1-.5-.4-.7-1.2-.9-2-.8-.2 0-.3.1-.4.2-.2.1-.1.2-.3.2-.1 0-.2.1-.2.2v.3M8.2-25.7v.2c-.1.1-.2 0-.2.1-.1.1-.1.3-.1.4-.2.1 0 .2 0 .3v.2c0 .1 0 .3.1.4 0 .1.2.3.3.5.2.1.4.6.6.6.2 0 .4-.1.5-.1.2 0 .4 0 .6-.1.2-.1.1-.3.3-.5.1-.1.3 0 .4-.1.2-.1.3-.3.4-.5v-.2c0-.1.1-.2.1-.3 0-.1-.1-.1-.1-.2v-.3c0-.2 0-.4-.1-.5-.4-.7-1.2-.9-2-.8-.2 0-.3.1-.4.2-.2.1-.1.2-.3.2-.1 0-.2.1-.2.2.1.2.1.2.1.3-.1 0-.1 0 0 0M.5-25.7v.2c-.1.1-.1.1-.2.1-.1.1-.1.3-.1.4-.2.1 0 .2 0 .3v.2c0 .1 0 .3.1.4.1.2.3.4.4.5.2.1.3.5.6.6.2 0 .4-.1.5-.1.2 0 .4 0 .6-.1.2-.1.1-.3.3-.5.1-.1.3 0 .4-.1.2-.1.3-.3.4-.5v-.2c0-.1.1-.2.1-.3 0-.1-.1-.1-.1-.2v-.3c0-.2 0-.4-.1-.5-.4-.7-1.2-.9-2-.8-.2 0-.3.1-.4.2-.2.1-.1.2-.3.2-.1 0-.2.1-.2.2v.3" class="st2"/>
      </g>
      <g>
        <path d="M69.4-18.1v.2c-.1.1-.1.1-.2.1-.1.1-.1.3-.1.4-.2.1 0 .2 0 .3v.2c0 .1 0 .3.1.4.1.2.3.4.4.5.2.1.4.6.6.6.2 0 .4-.1.5-.1.2 0 .4 0 .6-.1.2-.1.1-.3.3-.5.1-.1.3 0 .4-.1.2-.1.3-.3.4-.5v-.2c0-.1.1-.2.1-.3 0-.1-.1-.1-.1-.2v-.3c0-.2 0-.4-.1-.5-.4-.7-1.2-.9-2-.8-.2 0-.3.1-.4.2-.2.1-.1.2-.3.2-.1 0-.2.1-.2.2v.3c0 .1 0 0 0 0M61.8-18.1v.2c-.1.1-.1.1-.2.1-.1.1-.1.3-.1.4-.2.1 0 .2 0 .3v.2c0 .1 0 .3.1.4.1.2.3.4.4.5.2.1.4.6.6.6.2 0 .4-.1.5-.1.2 0 .4 0 .6-.1.2-.1.1-.3.3-.5.1-.1.3 0 .4-.1.2-.1.3-.3.4-.5v-.2c0-.1.1-.2.1-.3 0-.1-.1-.1-.1-.2v-.3c0-.2 0-.4-.1-.5-.4-.7-1.2-.9-2-.8-.2 0-.3.1-.4.2-.2.1-.1.2-.3.2-.1 0-.2.1-.2.2v.3c0 .1 0 0 0 0M54.1-18.1v.2c-.1.1-.1.1-.2.1-.1.1-.1.3-.1.4-.2.1 0 .2 0 .3v.2c0 .1 0 .3.1.4.1.2.3.4.4.5.2.1.4.6.6.6.2 0 .4-.1.5-.1.2 0 .4 0 .6-.1.2-.1.1-.3.3-.5.1-.1.3 0 .4-.1.2-.1.3-.3.4-.5v-.2c0-.1.1-.2.1-.3 0-.1-.1-.1-.1-.2v-.3c0-.2 0-.4-.1-.5-.4-.7-1.2-.9-2-.8-.2 0-.3.1-.4.2-.2.1-.1.2-.3.2-.1 0-.2.1-.2.2v.3c0 .1 0 0 0 0M46.5-18.1v.2c-.1.1-.1.1-.2.1-.1.1-.1.3-.1.4-.2.1 0 .2 0 .3v.2c0 .1 0 .3.1.4.1.2.3.4.4.5.2.1.4.6.6.6.2 0 .4-.1.5-.1.2 0 .4 0 .6-.1.2-.1.1-.3.3-.5.1-.1.3 0 .4-.1.2-.1.3-.3.4-.5v-.2c0-.1.1-.2.1-.3 0-.1-.1-.1-.1-.2v-.3c0-.2 0-.4-.1-.5-.4-.7-1.2-.9-2-.8-.2 0-.3.1-.4.2-.2.1-.1.2-.3.2-.1 0-.2.1-.2.2v.3c0 .1 0 0 0 0M38.8-18.1v.2c-.1.1-.1.1-.2.1-.1.1-.1.3-.1.4-.2.1 0 .2 0 .3v.2c0 .1 0 .3.1.4.1.2.3.4.4.5.2.1.4.6.6.6.2 0 .4-.1.5-.1.2 0 .4 0 .6-.1.2-.1.1-.3.3-.5.1-.1.3 0 .4-.1.2-.1.3-.3.4-.5v-.2c0-.1.1-.2.1-.3 0-.1-.1-.1-.1-.2v-.3c0-.2 0-.4-.1-.5-.4-.7-1.2-.9-2-.8-.2 0-.3.1-.4.2-.2.1-.1.2-.3.2-.1 0-.2.1-.2.2v.3c0 .1 0 0 0 0M31.1-18.1v.2c-.1.1-.1.1-.2.1-.1.1-.1.3-.1.4-.2.1 0 .2 0 .3v.2c0 .1 0 .3.1.4.1.2.3.4.4.5.2.1.4.6.6.6.2 0 .4-.1.5-.1.2 0 .4 0 .6-.1.2-.1.1-.3.3-.5.1-.1.3 0 .4-.1.2-.1.3-.3.4-.5v-.2c0-.1.1-.2.1-.3 0-.1-.1-.1-.1-.2v-.3c0-.2 0-.4-.1-.5-.4-.7-1.2-.9-2-.8-.2 0-.3.1-.4.2-.2.1-.1.2-.3.2-.1 0-.2.1-.2.2v.3c0 .1 0 0 0 0M23.5-18.1v.2c-.1.1-.1.1-.2.1-.1.1-.1.3-.1.4-.2.1 0 .2 0 .3v.2c0 .1 0 .3.1.4.1.2.3.4.4.5.2.1.4.6.6.6.2 0 .4-.1.5-.1.2 0 .4 0 .6-.1.2-.1.1-.3.3-.5.1-.1.3 0 .4-.1.2-.1.3-.3.4-.5v-.2c0-.1.1-.2.1-.3 0-.1-.1-.1-.1-.2v-.3c0-.2 0-.4-.1-.5-.4-.7-1.2-.9-2-.8-.2 0-.3.1-.4.2-.2.1-.1.2-.3.2-.1 0-.2.1-.2.2v.3c0 .1 0 0 0 0M15.8-18.1v.2c-.1.1-.1.1-.2.1-.1.1-.1.3-.1.4-.2.1 0 .2 0 .3v.2c0 .1 0 .3.1.4.1.2.3.4.4.5.2.1.4.6.6.6.2 0 .4-.1.5-.1.2 0 .4 0 .6-.1.2-.1.1-.3.3-.5.1-.1.3 0 .4-.1.2-.1.3-.3.4-.5v-.2c0-.1.1-.2.1-.3 0-.1-.1-.1-.1-.2v-.3c0-.2 0-.4-.1-.5-.4-.7-1.2-.9-2-.8-.2 0-.3.1-.4.2-.2.1-.1.2-.3.2-.1 0-.2.1-.2.2v.3c0 .1 0 0 0 0M8.2-18.1v.2c-.1.1-.2.1-.2.1-.1.1-.1.3-.1.4-.2.1 0 .2 0 .3v.2c0 .1 0 .3.1.4 0 .2.2.4.3.5.2.1.4.6.6.6.2 0 .4-.1.5-.1.2 0 .4 0 .6-.1.2-.1.1-.3.3-.5.1-.1.3 0 .4-.1.2-.1.3-.3.4-.5v-.2c0-.1.1-.2.1-.3 0-.1-.1-.1-.1-.2v-.3c0-.2 0-.4-.1-.5-.4-.7-1.2-.9-2-.8-.2 0-.3.1-.4.2-.2.1-.1.2-.3.2-.1 0-.2.1-.2.2.1.3.1.2.1.3-.1.1-.1 0 0 0M.5-18.1v.2c-.1.1-.1.1-.2.1-.1.1-.1.3-.1.4-.2.1 0 .2 0 .3v.2c0 .1 0 .3.1.4.1.2.3.4.4.5.2.1.4.6.6.6.2 0 .4-.1.5-.1.2 0 .4 0 .6-.1.2-.1.1-.3.3-.5.1 0 .3.1.4.1.2-.1.3-.3.4-.5v-.2c0-.1.1-.2.1-.3 0-.1-.1-.1-.1-.2v-.3c0-.2 0-.4-.1-.5-.4-.7-1.2-.9-2-.8-.2 0-.3.1-.4.2-.2.1-.1.2-.3.2-.1 0-.2.1-.2.2v.1c0 .1 0 0 0 0" class="st2"/>
      </g>
      <g>
        <path d="M69.4-10.4v.2c-.1.1-.1.1-.2.1-.1.1-.1.3-.1.4-.2.1 0 .2 0 .3v.2c0 .1 0 .3.1.4.1.2.3.4.4.5.2.1.4.6.6.6.2 0 .4-.1.5-.1.2 0 .4 0 .6-.1.2-.1.1-.3.3-.5.1-.1.3 0 .4-.1.2-.1.3-.3.4-.5v-.2c0-.1.1-.2.1-.3 0-.1-.1-.1-.1-.2v-.3c0-.2 0-.4-.1-.5-.4-.7-1.2-.9-2-.8-.2 0-.3.1-.4.2-.2.1-.1.2-.3.2-.1 0-.2.1-.2.2v.3M61.8-10.4v.2c-.1.1-.1.1-.2.1-.1.1-.1.3-.1.4-.2.1 0 .2 0 .3v.2c0 .1 0 .3.1.4.1.2.3.4.4.5.2.1.4.6.6.6.2 0 .4-.1.5-.1.2 0 .4 0 .6-.1.2-.1.1-.3.3-.4.1-.1.3 0 .4-.1.2-.1.3-.3.4-.5v-.2c0-.1.1-.2.1-.3 0-.1-.1-.1-.1-.2v-.3c0-.2 0-.4-.1-.5-.4-.7-1.2-.9-2-.8-.2 0-.3.1-.4.2-.2.1-.1.2-.3.2-.1 0-.2.1-.2.2v.2M54.1-10.4v.2c-.1.1-.1.1-.2.1-.1.1-.1.3-.1.4-.2.1 0 .2 0 .3v.2c0 .1 0 .3.1.4.1.2.3.4.4.5.2.1.4.6.6.6.2 0 .4-.1.5-.1.2 0 .4 0 .6-.1.2-.1.1-.3.3-.5.1-.1.3 0 .4-.1.2-.1.3-.3.4-.5v-.2c0-.1.1-.2.1-.3 0-.1-.1-.1-.1-.2v-.3c0-.2 0-.4-.1-.5-.4-.7-1.2-.9-2-.8-.2 0-.3.1-.4.2-.2.1-.1.2-.3.2-.1 0-.2.1-.2.2v.3M46.5-10.4v.2c-.1.1-.1.1-.2.1-.1.1-.1.3-.1.4-.2.1 0 .2 0 .3v.2c0 .1 0 .3.1.4.1.2.3.4.4.5.2.1.4.6.6.6.2 0 .4-.1.5-.1.2 0 .4 0 .6-.1.2-.1.1-.3.3-.5.1-.1.3 0 .4-.1.2-.1.3-.3.4-.5v-.2c0-.1.1-.2.1-.3 0-.1-.1-.1-.1-.2v-.3c0-.2 0-.4-.1-.5-.4-.7-1.2-.9-2-.8-.2 0-.3.1-.4.2-.2.1-.1.2-.3.2-.1 0-.2.1-.2.2v.3M38.8-10.4v.2c-.1.1-.1.1-.2.1-.1.1-.1.3-.1.4-.2.1 0 .2 0 .3v.2c0 .1 0 .3.1.4.1.2.3.4.4.5.2.1.4.6.6.6.2 0 .4-.1.5-.1.2 0 .4 0 .6-.1.2-.1.1-.3.3-.4.1-.1.3 0 .4-.1.2-.1.3-.3.4-.5v-.2c0-.1.1-.2.1-.3 0-.1-.1-.1-.1-.2v-.3c0-.2 0-.4-.1-.5-.4-.7-1.2-.9-2-.8-.2 0-.3.1-.4.2-.2.1-.1.2-.3.2-.1 0-.2.1-.2.2v.2M31.1-10.4v.2c-.1.1-.1.1-.2.1-.1.1-.1.3-.1.4-.2.1 0 .2 0 .3v.2c0 .1 0 .3.1.4.1.2.3.4.4.5.2.1.4.6.6.6.2 0 .4-.1.5-.1.2 0 .4 0 .6-.1.2-.1.1-.3.3-.5.1-.1.3 0 .4-.1.2-.1.3-.3.4-.5v-.2c0-.1.1-.2.1-.3 0-.1-.1-.1-.1-.2v-.3c0-.2 0-.4-.1-.5-.4-.7-1.2-.9-2-.8-.2 0-.3.1-.4.2-.2.1-.1.2-.3.2-.1 0-.2.1-.2.2v.3M23.5-10.4v.2c-.1.1-.1.1-.2.1-.1.1-.1.3-.1.4-.2.1 0 .2 0 .3v.2c0 .1 0 .3.1.4.1.2.3.4.4.5.2.1.4.6.6.6.2 0 .4-.1.5-.1.2 0 .4 0 .6-.1.2-.1.1-.3.3-.5.1-.1.3 0 .4-.1.2-.1.3-.3.4-.5v-.2c0-.1.1-.2.1-.3 0-.1-.1-.1-.1-.2v-.3c0-.2 0-.4-.1-.5-.4-.7-1.2-.9-2-.8-.2 0-.3.1-.4.2-.2.1-.1.2-.3.2-.1 0-.2.1-.2.2v.3M15.8-10.4v.2c-.1.1-.1.1-.2.1-.1.1-.1.3-.1.4-.2.1 0 .2 0 .3v.2c0 .1 0 .3.1.4.1.2.3.4.4.5.2.1.4.6.6.6.2 0 .4-.1.5-.1.2 0 .4 0 .6-.1.2-.1.1-.3.3-.4.1-.1.3 0 .4-.1.2-.1.3-.3.4-.5v-.2c0-.1.1-.2.1-.3 0-.1-.1-.1-.1-.2v-.3c0-.2 0-.4-.1-.5-.4-.7-1.2-.9-2-.8-.2 0-.3.1-.4.2-.2.1-.1.2-.3.2-.1 0-.2.1-.2.2v.2M8.2-10.4v.2c-.1.1-.2 0-.2.1-.1.1-.1.3-.1.3-.2.1 0 .2 0 .3v.2c0 .1 0 .3.1.4 0 .2.2.4.3.6.2.1.4.6.6.6.2 0 .4-.1.5-.1.2 0 .4 0 .6-.1.2-.1.1-.3.3-.5.1-.1.3 0 .4-.1.2-.1.3-.3.4-.5v-.2c0-.1.1-.2.1-.3 0-.1-.1-.1-.1-.2v-.3c0-.2 0-.4-.1-.5-.4-.7-1.2-.9-2-.8-.2 0-.3.1-.4.2-.2.1-.1.2-.3.2-.1 0-.2.1-.2.2.1.2.1.2.1.3-.1 0-.1 0 0 0M.5-10.4v.2c-.1.1-.1.1-.2.1 0 .1-.1.3-.1.3-.2.1 0 .2 0 .3v.2c0 .1 0 .3.1.4.1.2.3.4.4.5.2.2.3.6.6.7.2 0 .4-.1.5-.1.2 0 .4 0 .6-.1.2-.1.1-.3.3-.4.1-.1.3 0 .4-.1.2-.1.3-.3.4-.5v-.2c0-.1.1-.2.1-.3 0-.1-.1-.1-.1-.2v-.3c0-.2 0-.4-.1-.5-.4-.7-1.2-.9-2-.8-.2 0-.3.1-.4.2-.2.1-.1.2-.3.2-.1 0-.2.1-.2.2v.2" class="st2"/>
      </g>
    </g>
    <g>
      <path d="M69.4-2.8v.2c-.1.1-.1.1-.2.1-.1.1-.1.3-.1.4-.2.1 0 .2 0 .3v.2c0 .1 0 .3.1.4.1.2.3.4.4.5.2.2.4.6.6.7.2 0 .4-.1.5-.1.2 0 .4 0 .6-.1.2-.1.1-.3.3-.5.1-.1.3 0 .4-.1.2-.1.3-.3.4-.5v-.2c0-.1.1-.2.1-.3 0-.1-.1-.1-.1-.2v-.3c0-.2 0-.4-.1-.5-.4-.7-1.2-.9-2-.8-.2 0-.3.1-.4.2-.2.1-.1.2-.3.2-.1 0-.2.1-.2.2v.2c0 .1 0 0 0 0M61.8-2.8v.2c-.1.1-.1.1-.2.1-.1.1-.1.3-.1.4-.2.1 0 .2 0 .3v.2c0 .1 0 .3.1.4 0 .2.2.4.4.5.2.1.4.6.6.6.2 0 .4-.1.5-.1.2 0 .4 0 .6-.1.2-.1.1-.3.3-.5.1-.1.3 0 .4-.1.2-.1.3-.3.4-.5v-.2c0-.1.1-.2.1-.3 0-.1-.1-.1-.1-.2v-.3c0-.2 0-.4-.1-.5-.4-.7-1.2-.9-2-.8-.2 0-.3.1-.4.2-.2.1-.1.2-.3.2-.1 0-.2.1-.2.2v.3c0 .1 0 0 0 0M54.1-2.8v.2c-.1.1-.1.1-.2.1-.1.1-.1.3-.1.4-.2.1 0 .2 0 .3v.2c0 .1 0 .3.1.4.1.2.2.4.4.5.2.1.4.6.6.6.2 0 .4-.1.5-.1.2 0 .4 0 .6-.1.2-.1.1-.3.3-.5.1-.1.3 0 .4-.1.2.1.3-.1.4-.3v-.2c0-.1.1-.2.1-.3 0-.1-.1-.1-.1-.2v-.3c0-.2 0-.4-.1-.5-.4-.7-1.2-.9-2-.8-.2 0-.3.1-.4.2-.2.1-.1.2-.3.2-.1 0-.2.1-.2.2v.1c0 .1 0 0 0 0M46.5-2.8v.2c-.1.1-.1.1-.2.1-.1.1-.1.3-.1.4-.2.1 0 .2 0 .3v.2c0 .1 0 .3.1.4.1.2.3.4.4.5.1.2.3.6.5.7.2 0 .4-.1.5-.1.2 0 .4 0 .6-.1.2-.1.1-.3.3-.5.1-.1.3 0 .4-.1.2-.1.3-.3.4-.5v-.2c0-.1.1-.2.1-.3 0-.1-.1-.1-.1-.2v-.3c0-.2 0-.4-.1-.5-.4-.7-1.2-.9-2-.8-.2 0-.3.1-.4.2-.2.1-.1.2-.3.2-.1 0-.2.1-.2.2.1.2.1.1.1.2M38.8-2.8v.2c-.1.1-.1.1-.2.1-.1.1-.1.3-.1.4-.2.1 0 .2 0 .3v.2c0 .1 0 .3.1.4 0 .2.2.4.4.5.2.1.4.6.6.6.2 0 .4-.1.5-.1.2 0 .4 0 .6-.1.2-.1.1-.3.3-.5.1-.1.3 0 .4-.1.2-.1.3-.3.4-.5v-.2c0-.1.1-.2.1-.3 0-.1-.1-.1-.1-.2v-.3c0-.2 0-.4-.1-.5-.4-.7-1.2-.9-2-.8-.2 0-.3.1-.4.2-.2.1-.1.2-.3.2-.1 0-.2.1-.2.2v.3c0 .1 0 0 0 0M31.1-2.8v.2c-.1.1-.1.1-.2.1-.1.1-.1.3-.1.4-.2.1 0 .2 0 .3v.2c0 .1 0 .3.1.4.1.2.2.4.4.5.2.1.4.6.6.6.2 0 .4-.1.5-.1.2 0 .4 0 .6-.1.2-.1.1-.3.3-.5.1-.1.3 0 .4-.1.2-.1.3-.3.4-.5v-.2c0-.1.1-.2.1-.3 0-.1-.1-.1-.1-.2v-.3c0-.2 0-.4-.1-.5-.4-.7-1.2-.9-2-.8-.2 0-.3.1-.4.2-.2.1-.1.2-.3.2-.1 0-.2.1-.2.2v.3c0 .1 0 0 0 0M23.5-2.8v.2c-.1.1-.1.1-.2.1-.1.1-.1.3-.1.4-.2.1 0 .2 0 .3v.2c0 .1 0 .3.1.4.1.2.3.4.4.5.1.2.3.6.6.7.2 0 .4-.1.5-.1.2 0 .4 0 .6-.1.2-.1.1-.3.3-.5.1-.1.3 0 .4-.1.2-.1.3-.3.4-.5v-.2c0-.1.1-.2.1-.3 0-.1-.1-.1-.1-.2v-.3c0-.2 0-.4-.1-.5-.4-.7-1.2-.9-2-.8-.2 0-.3.1-.4.2-.2.1-.1.2-.3.2-.1 0-.2.1-.2.2v.2c0 .1 0 0 0 0M15.8-2.8v.2c-.1.1-.1.1-.2.1-.1.1-.1.3-.1.4-.2.1 0 .2 0 .3v.2c0 .1 0 .3.1.4.1.2.2.4.4.5.2.1.4.6.6.6.2 0 .4-.1.5-.1.2 0 .4 0 .6-.1.2-.1.1-.3.3-.5.1-.1.3 0 .4-.1.2-.1.3-.3.4-.5v-.2c0-.1.1-.2.1-.3 0-.1-.1-.1-.1-.2v-.3c0-.2 0-.4-.1-.5-.4-.7-1.2-.9-2-.8-.2 0-.3.1-.4.2-.2.1-.1.2-.3.2-.1 0-.2.1-.2.2v.3c0 .1 0 0 0 0M8.2-2.8v.2c-.1.1-.2.1-.2.1-.1.1-.1.3-.1.4-.2.1 0 .2 0 .3v.2c0 .1 0 .3.1.4 0 .2.2.4.3.5.2.2.4.6.6.7.2 0 .4-.1.5-.1.2 0 .4 0 .6-.1.2-.1.1-.3.3-.5.1-.1.3 0 .4-.1.2-.1.3-.3.4-.5v-.2c0-.1.1-.2.1-.3 0-.1-.1-.1-.1-.2v-.3c0-.2 0-.4-.1-.5-.4-.7-1.2-.9-2-.8 0 .1-.2.2-.3.2-.2.1-.1.2-.3.3-.1 0-.2.1-.2.2v.1c-.1.1-.1 0 0 0M.5-2.8v.2c-.1.1-.1.1-.2.1 0 .1-.1.3-.1.4-.2.1 0 .2 0 .3v.2c0 .1 0 .3.1.4 0 .2.2.4.4.5.2.2.3.6.6.7.2 0 .4-.1.5-.1.2 0 .4 0 .6-.1.2-.1.1-.3.3-.5.1-.1.3 0 .4-.1.2 0 .3-.2.4-.4v-.2c0-.1.1-.2.1-.3 0-.1-.1-.1-.1-.2v-.3c0-.2 0-.4-.1-.5-.4-.7-1.2-.9-2-.8-.1 0-.2.1-.4.1-.1.1-.1.2-.3.3-.1 0-.2.1-.2.2v.1c0 .1 0 0 0 0" class="st2"/>
    </g>
  </pattern>
  <path d="M668.5 1144.6H618v-25h39z" class="st3"/>
  <path d="M699.5 1144.6H649v-25h39zM391.3 1144.6h-50.5v-25h39zM451.6 1144.6h-50.5v-25h39z" class="st3"/>
  <path d="M612.4 387.3l14.5-4.2-12.2-8.9-14.5 4.1z" class="st4"/>
  <path d="M610.1 400.1l14.5-4.2-12.2-8.9-14.5 4.1zM614.7 374.2l14.6-4.1-12.2-9-14.6 4.1zM605.4 425.9l14.6-4.1-12.2-9-14.6 4.2z" class="st4"/>
  <path d="M603.1 438.7l14.6-4.1-12.2-9-14.6 4.2zM607.8 412.9l14.5-4.2-12.2-9-14.5 4.2zM598.6 464.1l14.5-4.2-12.2-9-14.5 4.2z" class="st4"/>
  <path d="M596.3 476.9l14.5-4.2-12.2-9-14.5 4.2zM600.9 451l14.6-4.2-12.2-9-14.6 4.2zM591.6 502.7l14.6-4.2-12.2-8.9-14.6 4.1z" class="st4"/>
  <path d="M589.3 515.5l14.6-4.2-12.2-8.9-14.6 4.1zM594 489.6l14.5-4.1-12.2-9-14.5 4.1zM639.4 234.2L654 230l-12.2-9-14.6 4.2z" class="st4"/>
  <path d="M637.1 247l14.5-4.2-12.1-9-14.6 4.2zM641.7 221.1l14.6-4.2-12.2-8.9-14.5 4.1zM646.8 195.4l14.6-4.2-12.2-9-14.6 4.2z" class="st4"/>
  <path d="M644.5 208.2L659 204l-12.1-9-14.6 4.2zM649.1 182.3l14.6-4.2-12.2-8.9-14.5 4.1zM632.4 272.8l14.6-4.1-12.2-9-14.6 4.1z" class="st4"/>
  <path d="M630.1 285.6l14.6-4.1-12.2-9-14.6 4.1zM634.8 259.7l14.6-4.1-12.2-9-14.6 4.2zM625.6 310.9l14.5-4.1-12.1-9-14.6 4.2z" class="st4"/>
  <path d="M623.3 323.7l14.5-4.1-12.2-9-14.5 4.2zM627.9 297.9l14.6-4.2-12.2-9-14.6 4.2zM618.6 349.6l14.6-4.2-12.2-9-14.6 4.2z" class="st4"/>
  <path d="M616.3 362.4l14.6-4.2-12.2-9-14.6 4.2zM621 336.5l14.5-4.2-12.1-8.9-14.6 4.1z" class="st4"/>
  <path d="M300.1 809.6L283 774.7l-17.1 34.9 17.1 34.9z" class="st3"/>
  <path d="M618.3 741.3l10 174.8h39l12.9-174.4z" class="st4"/>
  <circle cx="648.2" cy="915.2" r="26" class="st4"/>
  <path d="M629.2 911.3l3.9 208.3h29.3l6.8-220.1M377.1 771.4l10 144.7h39l12.8-144.3z" class="st4"/>
  <circle cx="407" cy="915.2" r="26" class="st4"/>
  <path d="M388 911.3l3.9 208.3h29.3l6.8-220.1" class="st4"/>
  <path d="M629.2 496.5c-50.4 0-91.3 40.9-91.3 91.3s40.9 91.3 91.3 91.3" class="st5"/>
  <ellipse cx="417.1" cy="681" class="st5" rx="91.3" ry="91.3" transform="rotate(-45.001 417.135 681.018)"/>
  <path d="M680.2 742.3l-263.1 34.1V589.7l263.1-30.1z" class="st5"/>
  <path d="M325.8 681v170l113.1-78.6z" class="st5"/>
  <path d="M636.9 1119.6c0-14.4 11.6-26 26-26s26 11.6 26 26" class="st4"/>
  <path d="M606.2 1119.6c0-14.4 11.6-26 26-26s26 11.6 26 26" class="st2"/>
  <path d="M391.1 1119.6c0-14.4 11.6-26 26-26s26 11.6 26 26" class="st4"/>
  <path d="M328.7 1119.6c0-14.4 11.6-26 26-26s26 11.6 26 26" class="st2"/>
  <path d="M345.1 624.9C304 666 283 729 283 778.4c0 0 8.7-68.7 53.3-115.3l8.8-38.2zM680.2 597.1V166.2h-33l-75.1 451.9z" class="st5"/>
  <path d="M680.2 166.2v576.2l-27.3 3.5-2.7 36.5-.8 10.1-1.2 16.9-.8 11.5-3.9 53.2v.2l-1.8 24.5c.2.2.3.4.5.6l.2-.1v.3c3.2 4.3 5 9.6 5 15.3 0 6.3-2.2 12.1-6 16.6l-5.8 187.8h-29.3L602.9 933c-4.6-4.7-7.4-11.1-7.4-18.2 0-5.8 1.9-11.2 5.1-15.5l-2.8-49.9-.5-8.2-3.7-64.7-1.3-23.1-33.9 4.4-14.4 1.9-6.5.8-7.6 1-4.6.6-16.9 2.2-36.6 4.7-34.8 4.5-41.3 28.8-15.8 11-6.2 4.3-5.4 60.9-.8 8.7-1.2 13.9c1.9 3 3.2 6.3 3.7 10 .2 1.3.3 2.5.3 3.8 0 1.6-.2 3.2-.4 4.7-.8 4.5-2.8 8.5-5.6 11.9l-.3 9.4-1.2 37.3-4.4 141.2h-29.3l-1.8-99.7-.7-39.7-.2-11.3-.2-8.5-.2-12.3-.2-11.1-.1-3.7c-2.1-2.1-3.8-4.6-5-7.4-.4-.9-.8-1.9-1.1-2.9-.8-2.5-1.2-5.2-1.2-7.9 0-7.3 3-13.9 7.8-18.6l.3-45.4v-.4l-.4.3V681c0-2 .1-4 .2-6-20.2 25.7-31.2 55.3-37.1 76.3-4.2 14.9-5.7 25.4-5.9 26.9v.2-.2c0-10.5 1-21.5 2.9-32.9 3-18 8.3-36.7 16-54.7 2.1-5 4.4-9.9 6.8-14.7 3.2-6.3 6.7-12.5 10.5-18.4 7-11 15-21.4 24-30.7.6-.6 1.2-1.3 1.9-1.9 9-11.5 20.7-20.8 34.1-27 7.6-3.5 15.9-6 24.5-7.2 4.4-.7 8.9-1 13.5-1l52.9-6 13.1-1.5 18.2-2.1 6.7-.8 18.6-2.1 5.2-.6 6.8-.8c.3-2.5.8-4.9 1.3-7.3 1.5-6.8 3.7-13.3 6.6-19.4 2.3-4.9 5-9.6 8.2-14 7.4-10.5 17-19.3 28.2-25.9 2.6-1.5 5.3-3 8-4.2l.6-3.6 1.8-10.8 3.6-21.5.5-3 17.9-107.4 6.5-39.2 25.5-153.2h32.5z" class="st5"/>
  <g>
    <path d="M430.3 678.1l-26.7-13.6 4.7-29.5 29.6-4.7 13.6 26.7zM378.3 687l-26.6-13.6 4.6-29.6 29.6-4.7 13.6 26.7zM368.7 739.7L342 726.1l4.7-29.5 29.6-4.7 13.6 26.7zM416.2 765.2l-26.7-13.5 4.7-29.6 29.6-4.7 13.5 26.7zM455.6 725.8L429 712.2l4.7-29.6 29.5-4.7 13.6 26.7zM526.7 577.2l5.1-.6-2.1 2.1zM550.9 557.5l-10.9 11c1.5-6.8 3.7-13.3 6.6-19.4l4.3 8.4zM483.2 582.1l-5.5 5.5-7.7-4zM468.1 640.3l-26.7-13.6 4.7-29.5 29.6-4.7 13.6 26.7zM515.6 665.8l-26.7-13.6 4.7-29.5 29.6-4.7 13.5 26.7zM555.1 626.4l-26.7-13.6 4.7-29.6 29.5-4.7 13.6 26.7zM510.7 588.8l3.3 6.5 7.3-1.1 1.2-7.3-6.6-3.4zM508.5 601.6l3.4 6.6 7.3-1.2 1.1-7.3-6.6-3.3zM495.5 604l3.4 6.5 7.2-1.1 1.2-7.3-6.6-3.4zM489.2 592.2l3.4 6.6 7.2-1.1 1.2-7.3-6.6-3.4zM508.1 579.3l2.6 1.3-1.1 7.3-7.3 1.2-3.4-6.6 2.5-2.5zM410.4 688.3l3.4 6.6 7.2-1.2 1.2-7.3-6.6-3.3zM408.2 701.1l3.4 6.6 7.3-1.2 1.1-7.2-6.6-3.4zM395.2 703.5l3.4 6.6 7.3-1.2 1.1-7.3-6.6-3.3zM388.9 691.8l3.4 6.6 7.3-1.2 1.1-7.3-6.6-3.3zM398.7 682l3.3 6.6 7.3-1.1 1.1-7.3-6.5-3.4z" class="st4"/>
    <g>
      <path d="M348 756.4l-21.2 21.1-1-.5v-45.9l8.6-1.4zM288.9 751.3c-4.2 14.9-5.7 25.4-5.9 26.9 0-10.5 1-21.5 2.9-32.9l3 6zM326.2 851.2v-.4l-.4.2v-23.3l8.1 15.8zM352.2 825.2l-26.7-13.6 4.7-29.6 29.6-4.6 13.5 26.6z" class="st4"/>
    </g>
    <g>
      <path d="M395.5 802.6l-15.8 10.9 1.4-8.7zM368.1 878.8l-.8 8.6-.5-.2z" class="st4"/>
    </g>
    <g>
      <path d="M369.8 911.3l-10.7-21.1-29.6 4.7-4.7 29.6 26.7 13.6 18.1-18.2zM320.7 925.7l-.2.2c-.4-.9-.8-1.9-1.1-2.9l1.3 2.7zM358.5 1004l-21.1 21.2-10.3-5.3-.7-39.6 18.5-3zM363.8 941.2l-1.2 37.3-12.4-6.4 4.6-29.5z" class="st4"/>
    </g>
    <g>
      <path d="M331.6 948.2l3.3 6.6 7.3-1.1 1.2-7.3-6.6-3.4zM329.4 961.1l3.4 6.5 7.3-1.1 1.1-7.3-6.6-3.4zM328.2 961.6l-1.2 7.2-.8.2-.2-8.6zM331.6 940.1l-1.1 7.3-4.7.8-.2-11.2z" class="st4"/>
    </g>
    <g>
      <path d="M632.2 809.7l-26.7-13.5 4.7-29.6 29.6-4.7 13.5 26.7zM597 841.5l3.6-22.1 29.5-4.7 13.6 26.6-21.2 21.2-25-12.7zM643.4 874.2v.2z" class="st4"/>
    </g>
    <g>
      <path d="M642.8 814.6l3.3 6.5 7.3-1.1 1.2-7.3-6.6-3.4z" class="st4"/>
    </g>
    <g>
      <path d="M656.2 639.8l-26.6-13.6 4.6-29.6 29.6-4.6 13.6 26.6zM604.3 648.6L577.6 635l4.7-29.5 29.5-4.7 13.6 26.7zM594.6 701.4L568 687.8l4.6-29.6 29.6-4.6 13.6 26.6zM642.1 726.9l-26.7-13.6 4.7-29.5 29.6-4.7 13.6 26.6zM680.2 641v45.7l-25.3-12.9 4.7-29.5z" class="st4"/>
    </g>
    <g>
      <path d="M636.3 650l3.4 6.5 7.3-1.1 1.1-7.3-6.5-3.4zM634.2 662.8l3.3 6.6 7.3-1.2 1.2-7.3-6.6-3.3zM621.1 665.2l3.4 6.5 7.3-1.1 1.1-7.3-6.5-3.4zM614.8 653.4l3.4 6.6 7.3-1.1 1.1-7.3-6.5-3.4zM624.6 643.7l3.3 6.6 7.3-1.2 1.2-7.3-6.6-3.3z" class="st4"/>
    </g>
    <g>
      <path d="M556.9 740.3l-26.7-13.6 4.7-29.6 29.6-4.6 13.5 26.6zM504.9 749.1l-26.7-13.6 4.7-29.5 29.6-4.7 13.6 26.7zM508.2 764.6l-36.6 4.7 1.7-10.5 29.5-4.7zM603.4 766.8l-10.1 10-1.3-23.1-33.9 4.4 2.1-13.3 29.6-4.7z" class="st4"/>
    </g>
    <g>
      <path d="M537 750.5l3.3 6.5 7.3-1.1 1.2-7.3-6.6-3.4zM543.8 760l-6.5.8 2.7-2.7zM529.7 761.8l-4.6.6 1.9-2zM515.5 753.9l3.4 6.6 7.2-1.1 1.2-7.3-6.6-3.4zM525.2 744.2l3.4 6.6 7.3-1.2 1.1-7.3-6.5-3.3z" class="st4"/>
    </g>
    <g>
      <path d="M311.3 681.1l-9.5 9.5c2.1-5 4.4-9.9 6.8-14.7l2.7 5.2zM350.8 641.6l-21.2 21.2-10.5-5.3c7-11 15-21.4 24-30.7l7.7 14.8z" class="st4"/>
    </g>
    <g>
      <path d="M403.6 590.7l-13.1 13.1-11.4-5.8c7.7-3.6 15.9-6.1 24.5-7.3z" class="st4"/>
    </g>
    <g>
      <path d="M608.1 491.4l3.4 6.6 7.3-1.1 1.1-7.3-6.6-3.4zM605.9 504.3l3.4 6.5 7.3-1.1 1.1-7.3-6.5-3.4zM592.9 506.6l3.4 6.6 7.3-1.1 1.1-7.3-6.5-3.4zM586.6 494.9l3.4 6.6 7.3-1.2 1.1-7.2-6.5-3.4zM596.4 485.2l3.3 6.6 7.3-1.2 1.2-7.3-6.6-3.3z" class="st4"/>
    </g>
    <g>
      <path d="M629 479.9l-26.6-13.6 4.7-29.5 29.5-4.7 13.6 26.7zM598.2 467.6l-1.3 1.4.5-3zM588.6 520.4l-21.2 21.2-12.7-6.5c7.4-10.5 17-19.3 28.2-25.9l5.7 11.2zM614.9 567l-26.6-13.5 4.6-29.6 29.6-4.7 13.6 26.7zM654.4 527.6L627.7 514l4.7-29.6 29.6-4.6 13.6 26.6z" class="st4"/>
    </g>
    <g>
      <path d="M680.2 341v43.3l-3.9 3.9-26.6-13.6 4.7-29.6zM680.2 404.7v22.8l-13.5 13.4-26.7-13.6 4.7-29.5 29.6-4.7z" class="st4"/>
    </g>
    <g>
      <path d="M649.2 343.8L628 365l-12.7-6.5 6.5-39.2 13.8-2.1z" class="st4"/>
    </g>
    <g>
      <path d="M680.2 524.3v12.4l-1.9-.9zM680.2 557.9v36.5l-11.5-5.9 4.7-29.5z" class="st4"/>
    </g>
  </g>
  <path d="M592 753.7H401.1l-27.6 64.1 65.4-41.4z" class="st2"/>
  <g>
    <path d="M708.9 140.8c0 10.2 8.2 18.4 18.4 18.4s18.4-8.2 18.4-18.4M617.6 140.8c0 10.2 8.2 18.4 18.4 18.4s18.4-8.2 18.4-18.4" class="st4"/>
    <g>
      <path d="M699.7 123.9c0 15.3 12.4 27.7 27.7 27.7 15.3 0 27.7-12.4 27.7-27.7M608.3 123.9c0 15.3 12.4 27.7 27.7 27.7 15.3 0 27.7-12.4 27.7-27.7" class="st5"/>
    </g>
  </g>
  <path d="M660.9 261.4c0 11.4 9.2 20.6 20.6 20.6 11.4 0 20.6-9.2 20.6-20.6 0-11.4-9.2-20.6-20.6-20.6-11.4 0-20.6 9.3-20.6 20.6z" class="st4"/>
  <path d="M722 164.2l-18.1 100.3h-44.5l-18.1-100.3 12.9-50.2h54.9z" class="st5"/>
  <g>
    <path d="M676.1 97.4c0-3.2-2.6-5.8-5.8-5.8-3.2 0-5.8 2.6-5.8 5.8V115h11.7V97.4zM698.9 97.4c0-3.2-2.6-5.8-5.8-5.8-3.2 0-5.8 2.6-5.8 5.8V115H699V97.4z" class="st5"/>
  </g>
  <path d="M688.2 255.1c0 1.6 1.3 2.8 2.8 2.8 1.6 0 2.8-1.3 2.8-2.8s-1.3-2.8-2.8-2.8c-1.5-.1-2.8 1.2-2.8 2.8z" class="st3"/>
  <path d="M721.6 166.6l-17.7 97.9V160l11.8 1.8zM658.9 159.7v101.6l-17.3-95.4 5.5-4.5z" class="st2"/>
  <path d="M722 164.2l-.4 2.4-17.7 97.9h-44.5l-.5-3.2-17.3-95.4-.3-1.7 12.9-50.2h54.9z" class="st0"/>
  <g>
    <path d="M693.5 172c0 9.1 7.3 16.4 16.4 16.4s16.4-7.3 16.4-16.4c0-9.1-7.3-16.4-16.4-16.4s-16.4 7.3-16.4 16.4zM637 172c0 9.1 7.3 16.4 16.4 16.4 9.1 0 16.4-7.3 16.4-16.4 0-9.1-7.3-16.4-16.4-16.4-9.1 0-16.4 7.3-16.4 16.4z" class="st5"/>
  </g>
  <g>
    <path d="M644.4 173.1c0 4.2 3.4 7.6 7.6 7.6 4.2 0 7.6-3.4 7.6-7.6 0-4.2-3.4-7.6-7.6-7.6-4.2 0-7.6 3.4-7.6 7.6z" class="st6"/>
    <path d="M646.1 173.1c0 3.3 2.7 6 6 6s6-2.7 6-6-2.7-6-6-6c-3.4 0-6 2.7-6 6z" class="st3"/>
    <path d="M652 171.6c0 .8.7 1.5 1.5 1.5s1.5-.7 1.5-1.5-.7-1.5-1.5-1.5c-.8.1-1.5.7-1.5 1.5z" class="st2"/>
    <g>
      <path d="M703.5 173.1c0 4.2 3.4 7.6 7.6 7.6 4.2 0 7.6-3.4 7.6-7.6 0-4.2-3.4-7.6-7.6-7.6-4.2 0-7.6 3.4-7.6 7.6z" class="st6"/>
      <path d="M705.2 173.1c0 3.3 2.7 6 6 6s6-2.7 6-6-2.7-6-6-6c-3.4 0-6 2.7-6 6z" class="st3"/>
      <path d="M711.1 171.6c0 .8.7 1.5 1.5 1.5s1.5-.7 1.5-1.5-.7-1.5-1.5-1.5c-.8.1-1.5.7-1.5 1.5z" class="st2"/>
    </g>
    <path d="M660.4 172.1c0-6.7-5.4-12.1-12.1-12.1-6.7 0-12.1 5.4-12.1 12.1M727.3 172.1c0-6.7-5.4-12.1-12.1-12.1-6.7 0-12.1 5.4-12.1 12.1" class="st3"/>
  </g>
  <g>
    <path d="M690.6 236.8h.8v18h-.8zM667 255.1c0 1.6 1.3 2.8 2.8 2.8 1.6 0 2.8-1.3 2.8-2.8s-1.3-2.8-2.8-2.8c-1.5-.1-2.8 1.2-2.8 2.8z" class="st3"/>
    <path d="M669.5 236.8h.8v18h-.8z" class="st3"/>
  </g>
</svg>
